P3
# Hse
64 64
255
177
192
179
184
196
174
171
192
174
189
205
192
176
196
180
183
190
168
172
196
185
193
207
198
182
213
208
181
212
209
186
214
211
187
216
212
186
216
212
179
216
211
189
217
211
192
217
211
186
217
211
189
217
211
182
217
211
185
217
211
186
216
211
196
216
211
187
216
211
190
216
211
187
216
211
184
216
211
188
216
211
178
216
211
189
216
211
183
216
211
183
216
211
194
216
211
188
215
210
188
214
210
187
214
209
185
213
208
185
213
208
185
213
208
185
213
208
185
214
208
185
214
209
185
214
209
186
214
209
188
215
210
188
215
210
187
215
210
187
215
211
188
215
211
188
216
211
187
215
211
188
215
211
188
216
211
189
216
212
191
217
212
192
217
212
193
218
213
194
219
213
196
220
214
198
220
215
200
222
216
202
223
217
206
225
218
211
229
221
190
207
185
167
164
142
184
173
133
178
159
106
169
148
95
161
156
117
161
164
132
159
160
130
170
177
152
165
172
151
162
189
183
171
207
207
170
206
206
171
209
209
173
210
209
173
210
209
173
210
209
174
210
209
174
210
209
175
210
209
175
210
209
174
210
209
174
210
209
174
210
209
174
210
209
174
210
209
175
210
209
174
210
209
174
210
209
174
210
209
174
211
209
174
211
209
174
211
209
173
210
208
171
209
208
170
209
207
169
208
207
169
208
206
169
208
206
169
209
206
169
209
207
170
210
208
171
210
208
172
210
208
173
211
209
174
211
209
175
212
209
176
212
210
177
212
210
177
212
210
177
213
210
177
213
210
177
213
211
178
213
211
181
214
211
182
215
212
184
216
212
186
217
213
190
218
214
192
219
215
195
221
216
198
222
217
203
224
218
209
229
222
182
203
180
169
141
82
159
140
83
150
136
88
154
139
89
150
154
117
156
142
91
155
148
104
154
137
85
146
128
73
150
167
147
161
187
177
161
190
185
174
209
208
173
209
208
174
210
209
172
208
207
174
209
208
176
210
209
176
211
209
175
210
208
175
210
208
176
210
208
175
210
209
175
210
208
175
210
208
175
210
208
175
210
208
175
211
208
176
210
208
175
211
208
176
210
208
176
210
208
175
210
208
174
210
207
173
209
207
172
209
206
172
209
206
172
209
207
173
209
207
173
210
207
173
210
207
174
210
208
175
211
208
176
211
209
176
212
209
177
212
209
177
212
209
178
213
210
178
213
210
179
213
210
178
213
210
179
213
210
179
213
210
181
214
211
182
215
212
184
215
212
186
216
213
189
218
214
192
219
215
195
220
215
198
222
217
202
224
218
208
228
222
182
203
180
159
128
67
148
128
65
124
109
62
150
128
75
151
140
90
142
137
94
156
150
100
144
133
85
155
146
100
152
146
101
143
159
134
160
190
183
168
200
197
173
204
202
172
205
203
169
203
201
176
209
207
177
210
208
176
210
208
176
210
208
176
210
208
177
210
208
177
210
208
176
210
207
177
210
207
177
210
208
177
210
208
177
211
208
176
211
208
176
210
207
177
210
207
177
210
208
177
210
207
176
210
207
176
210
206
174
210
206
175
210
206
175
210
206
175
210
207
175
210
207
176
211
208
176
211
208
177
212
208
178
212
208
179
212
209
179
211
208
180
212
209
180
213
210
180
213
210
180
213
210
180
213
210
181
213
210
181
213
210
182
214
211
183
214
211
185
215
212
186
216
212
190
217
213
192
219
214
195
220
215
198
222
216
202
224
218
208
228
222
182
203
180
141
132
92
124
129
90
108
117
88
135
134
89
113
132
101
135
131
92
161
158
117
129
137
102
121
137
108
126
146
120
137
167
148
139
160
137
163
180
164
164
181
165
167
195
189
166
192
182
172
199
194
178
209
207
178
210
207
179
210
207
178
210
207
178
210
207
178
210
207
177
210
207
177
210
207
178
210
207
178
211
207
178
210
207
177
210
207
177
210
207
178
210
207
178
210
207
179
210
207
176
209
206
176
209
206
176
210
206
176
210
206
177
210
206
177
210
207
177
211
207
178
211
207
179
211
207
179
212
208
180
212
208
180
212
208
180
212
208
180
212
208
181
213
209
181
213
209
181
213
209
182
213
209
182
213
210
182
213
210
183
214
210
183
214
210
184
214
211
186
215
212
189
217
213
191
218
214
194
220
215
198
221
216
202
224
218
208
228
222
182
204
182
134
161
148
137
158
135
144
150
116
158
158
121
130
154
128
125
123
76
142
134
89
143
141
98
136
148
111
130
130
92
127
141
108
137
146
114
149
154
118
157
143
91
159
153
113
168
189
177
164
194
188
174
204
201
177
208
206
179
210
207
179
209
207
179
210
207
179
210
207
178
209
206
179
209
206
179
210
206
179
210
207
179
210
207
179
210
206
178
210
207
180
210
206
180
210
206
180
210
207
178
209
206
178
209
206
178
210
206
178
210
206
178
210
206
178
210
206
178
210
207
179
211
207
179
211
207
181
212
208
181
212
208
182
212
208
182
212
208
182
212
208
182
213
209
182
213
209
182
213
209
182
213
209
183
213
209
183
213
209
183
213
210
183
213
210
183
213
210
185
215
211
188
216
212
191
217
213
194
219
214
197
221
215
202
223
217
208
228
221
182
203
182
141
171
161
164
170
147
157
168
141
151
142
98
134
160
138
124
136
101
116
123
83
131
124
70
131
123
74
140
140
97
148
146
106
161
167
131
155
143
92
158
139
83
150
146
107
159
172
144
156
172
152
159
183
171
175
203
198
178
205
200
180
210
206
180
210
206
180
209
206
180
209
206
180
209
206
180
209
206
180
210
206
180
210
206
180
210
206
180
210
206
182
210
206
181
210
206
180
210
206
180
210
206
180
209
205
179
209
205
179
209
205
179
210
205
180
210
206
180
211
206
180
211
206
180
211
207
181
211
207
181
211
207
182
212
208
183
212
208
183
212
208
182
212
208
182
212
208
183
213
208
183
213
209
184
213
209
183
213
209
184
213
210
184
213
210
184
213
210
184
214
211
187
216
212
190
216
212
193
218
213
197
220
215
202
223
217
207
228
221
182
204
182
144
167
151
161
179
156
136
154
132
141
149
114
131
147
119
161
165
130
145
162
131
103
114
79
121
123
75
133
122
68
158
151
103
147
143
98
161
151
101
153
145
98
146
140
98
152
154
118
156
157
117
153
162
139
166
191
177
171
195
186
180
209
204
181
210
205
181
210
205
182
210
206
182
210
206
181
210
205
181
209
206
180
210
205
180
210
206
181
210
206
182
210
206
182
210
206
182
210
206
181
210
206
181
210
205
181
210
205
181
210
206
181
210
205
182
211
205
181
211
206
182
211
206
181
211
206
182
211
206
182
211
207
183
212
207
183
212
207
183
212
207
184
212
208
183
212
208
185
213
208
185
213
209
185
213
209
185
213
209
186
214
210
185
214
210
186
214
210
186
214
211
188
215
211
189
216
212
193
218
213
197
220
214
201
223
216
207
227
220
182
203
182
149
169
150
149
176
161
168
196
184
134
157
133
146
163
132
141
160
138
152
172
147
155
163
129
138
150
112
140
132
74
148
136
87
153
157
118
161
154
103
160
137
75
152
131
72
145
140
95
157
142
91
151
167
145
160
186
175
176
201
195
180
207
202
181
208
204
183
210
205
183
210
206
183
210
206
183
210
206
183
210
205
182
211
205
182
210
206
182
211
206
183
211
206
183
211
206
183
211
206
183
211
206
183
211
206
182
210
205
180
209
204
178
207
202
180
209
204
181
210
205
181
210
205
182
211
206
183
211
206
184
212
206
184
212
207
185
212
207
185
212
208
185
213
208
185
213
208
186
213
208
185
213
209
187
213
209
186
214
209
187
214
210
187
214
210
187
214
210
187
214
211
189
215
211
191
216
212
193
218
213
197
220
214
201
222
216
207
227
220
182
204
183
151
160
131
152
165
140
173
199
187
151
162
135
152
176
157
154
175
149
165
156
105
161
154
106
162
162
121
156
147
98
160
153
105
162
152
101
151
138
86
166
148
87
148
132
79
152
156
117
148
144
96
147
152
117
148
161
133
166
187
173
169
187
169
181
205
199
185
211
205
185
211
205
185
211
205
184
210
205
184
210
205
184
211
205
183
211
206
184
211
205
184
211
206
184
211
205
185
211
206
184
209
204
183
209
204
178
206
200
169
198
191
166
198
192
171
201
196
171
200
194
170
202
197
172
203
198
179
208
203
182
210
204
186
212
206
186
212
207
187
213
207
187
213
208
187
213
208
188
213
208
188
214
209
189
214
209
188
214
209
188
214
210
188
214
210
188
215
210
188
214
210
189
215
211
191
216
211
194
218
212
197
219
214
201
222
215
207
226
220
183
204
183
137
142
112
155
171
144
174
188
165
120
143
118
142
170
155
172
193
176
148
164
131
148
147
101
169
173
137
158
147
93
153
143
90
156
162
125
144
157
121
158
154
107
157
150
104
156
160
120
154
148
99
156
158
114
158
141
88
149
144
96
138
144
113
179
201
192
187
211
205
186
211
205
187
211
204
186
211
205
186
211
205
186
211
205
186
212
205
187
212
206
183
208
202
173
200
192
173
197
189
172
198
190
173
200
193
165
193
184
158
185
170
160
190
181
163
195
188
163
196
188
166
199
193
161
193
184
166
198
192
172
201
197
185
211
205
187
213
206
188
213
207
188
213
207
188
213
208
189
214
208
189
214
208
189
214
208
190
214
209
189
214
209
189
214
209
189
214
210
188
214
210
189
215
210
191
216
211
194
217
212
197
219
213
201
222
215
206
226
219
183
204
183
144
140
97
120
129
101
157
163
128
151
175
162
166
191
180
178
201
189
173
166
122
150
150
108
168
166
126
151
142
92
139
150
118
147
161
127
146
151
108
166
155
104
156
149
98
158
148
97
142
141
91
150
145
94
151
126
64
132
111
56
105
106
83
187
208
200
189
212
204
188
211
204
189
212
204
189
212
204
189
212
205
189
212
205
190
213
205
187
211
203
182
206
197
163
192
182
159
189
180
168
195
183
160
188
176
156
185
171
157
183
164
155
184
169
156
187
175
155
187
175
166
197
189
154
188
177
164
196
188
167
198
191
177
205
199
187
212
205
189
213
206
189
213
207
189
214
207
190
214
208
190
214
208
191
214
208
190
214
209
191
215
209
190
215
209
190
215
209
190
215
210
191
215
209
192
216
210
195
217
211
198
219
212
202
222
214
207
226
219
183
204
183
127
116
71
144
136
85
149
144
95
174
182
159
179
188
163
188
181
138
155
157
118
179
173
130
169
151
94
174
172
135
165
168
134
160
171
140
149
161
127
163
152
98
179
155
94
168
149
89
156
143
83
154
137
78
138
127
76
161
137
72
140
127
78
178
192
178
191
212
204
191
212
204
191
212
204
191
212
204
191
213
204
192
213
205
192
214
205
186
209
200
171
197
188
168
196
185
163
190
179
167
193
180
156
187
174
154
185
173
157
187
172
154
186
171
147
181
165
152
184
170
169
199
187
148
179
164
161
188
171
162
187
173
172
196
187
185
206
199
188
210
204
190
213
206
190
214
207
191
214
207
191
214
208
191
214
208
191
214
209
192
215
209
191
215
209
191
215
209
191
215
209
192
215
210
193
216
210
196
217
211
198
219
212
202
221
214
207
226
218
183
204
182
138
123
78
154
139
78
153
139
81
155
138
76
154
133
80
179
172
131
153
162
127
164
168
135
132
158
134
127
149
122
175
180
146
124
126
86
158
160
129
188
175
129
198
183
142
192
174
122
185
161
93
139
121
61
146
130
71
157
142
87
144
142
96
144
157
125
159
174
149
166
184
167
173
194
184
187
208
199
193
212
204
193
213
204
190
211
202
184
206
195
168
194
182
171
197
184
158
187
173
164
192
179
167
194
181
161
188
172
160
189
174
158
188
172
149
181
162
157
186
173
162
191
173
149
173
149
165
187
167
169
186
162
172
190
169
173
194
182
185
207
199
190
212
204
191
214
207
191
213
206
191
213
206
192
213
207
192
214
208
192
214
208
192
214
208
193
215
208
193
215
209
194
216
209
195
216
210
196
217
211
199
219
212
203
222
213
208
226
218
185
204
183
146
128
67
147
132
71
154
134
74
150
133
77
160
154
118
175
169
125
149
162
138
176
199
186
137
158
131
147
168
141
152
140
86
149
131
79
184
167
118
174
154
102
165
145
92
215
205
173
178
160
106
173
150
85
145
123
56
156
139
77
149
150
111
163
171
134
167
174
139
174
178
144
167
173
135
153
166
132
149
167
140
162
181
163
171
192
179
173
196
184
178
201
189
167
192
178
159
185
168
168
193
179
175
198
182
159
183
159
156
179
159
153
178
151
137
158
125
150
172
148
152
171
139
157
174
145
179
187
156
182
188
152
173
183
148
172
189
161
148
178
151
173
198
185
191
210
200
191
208
198
188
208
201
188
209
202
186
206
199
189
209
203
187
208
202
189
209
204
192
213
207
195
215
209
196
216
210
197
217
210
199
219
211
201
219
212
206
224
217
183
203
183
100
89
53
153
133
66
145
131
74
157
148
96
167
157
108
168
159
115
170
187
172
184
205
193
144
160
132
162
164
129
177
160
107
173
144
79
170
145
86
178
155
96
182
159
102
207
192
152
187
171
119
198
184
138
173
162
113
139
120
60
147
142
95
160
167
130
161
168
131
164
168
128
165
170
133
167
174
139
167
175
142
168
178
147
168
176
143
166
173
139
159
173
144
158
175
150
154
175
151
148
171
149
167
189
170
151
173
143
136
155
126
146
170
141
130
154
123
151
175
149
148
163
128
171
184
156
184
186
146
193
188
133
160
172
118
149
170
118
95
136
79
98
135
89
180
189
159
200
201
175
189
203
190
183
201
191
179
198
188
182
202
193
182
201
191
182
201
193
187
207
201
195
214
207
195
215
208
193
213
207
192
212
206
191
211
205
200
218
212
176
198
178
119
97
47
149
128
60
151
132
67
166
144
79
160
139
72
148
134
79
169
177
155
179
185
151
166
148
95
191
171
125
205
185
138
202
179
126
192
168
111
181
158
103
188
165
105
177
156
97
172
162
112
181
181
145
161
157
110
151
143
94
135
140
102
157
164
128
158
167
131
167
173
138
157
170
137
164
172
140
162
173
141
168
176
145
179
182
147
177
182
148
172
177
141
174
179
144
178
181
146
174
179
146
175
188
166
157
177
149
141
162
132
149
170
140
152
172
146
163
181
152
148
165
131
171
179
143
187
185
138
196
189
135
167
176
113
104
139
80
99
139
79
105
137
85
176
178
129
198
193
155
187
198
179
177
193
175
180
198
188
186
204
194
181
200
189
180
199
189
184
204
196
187
207
200
190
210
203
185
205
197
178
198
184
175
197
188
184
206
197
153
178
157
118
106
54
134
115
52
145
141
93
143
139
87
142
144
107
150
154
115
185
180
144
177
162
124
214
205
168
200
181
140
215
202
159
177
159
107
178
157
107
181
164
111
174
164
113
153
143
88
153
152
102
139
136
93
168
156
103
183
178
145
157
156
114
157
154
111
165
163
121
169
174
138
161
169
133
164
171
137
171
178
147
167
176
144
169
176
144
180
183
149
172
178
145
162
174
143
171
178
145
182
184
150
183
184
150
166
179
149
147
166
135
144
163
133
183
199
181
152
169
136
160
175
144
178
184
144
190
182
126
183
182
123
143
164
101
98
136
79
87
126
72
92
129
76
135
162
112
176
182
135
161
181
146
168
187
166
177
194
180
181
200
189
176
193
175
171
189
171
171
192
180
175
198
187
175
197
186
179
197
183
165
185
165
162
186
169
171
191
175
145
170
145
101
84
45
162
157
106
152
153
104
126
110
53
156
164
129
157
154
109
160
153
108
199
189
160
215
207
172
207
194
161
217
210
179
179
159
106
183
159
102
178
171
119
153
133
72
158
131
66
144
140
87
113
101
52
148
130
70
155
149
97
157
147
96
157
145
91
173
153
94
159
164
128
166
174
140
169
174
138
170
176
143
169
178
145
162
173
138
163
172
137
168
174
138
170
178
146
168
177
145
170
178
145
172
180
147
179
185
153
166
176
143
148
166
138
171
189
165
152
168
134
163
179
147
187
189
149
192
185
126
154
166
104
137
156
93
83
122
66
73
104
51
85
123
75
96
139
87
109
148
96
137
166
130
177
194
176
182
197
181
180
194
176
170
186
164
171
193
179
178
199
188
179
200
189
179
198
186
182
195
174
157
175
149
155
173
146
158
177
152
141
162
133
124
103
49
130
115
53
122
117
66
138
134
83
152
145
96
169
160
103
155
133
81
211
199
160
202
182
127
189
164
103
194
177
135
176
160
107
175
154
89
135
127
71
139
144
100
147
122
59
159
136
66
144
122
66
163
149
92
165
146
89
165
156
102
171
161
113
179
166
111
138
130
80
131
142
109
157
165
130
170
175
138
169
175
139
166
174
137
166
174
139
167
174
140
167
175
143
174
178
143
171
179
144
168
176
142
177
182
150
183
186
152
173
182
150
164
176
140
168
181
144
139
169
116
136
166
113
165
176
123
147
164
107
100
139
82
88
128
70
67
100
49
90
133
74
75
113
61
89
128
83
158
176
145
179
192
168
175
190
170
174
188
164
167
185
164
166
188
172
176
194
180
175
192
177
178
195
179
172
183
155
161
176
146
147
164
126
151
167
134
139
155
118
137
117
63
139
133
79
129
138
95
146
135
79
152
143
90
162
139
74
192
176
126
191
169
111
202
185
142
204
194
158
177
164
112
165
141
74
167
160
119
148
141
90
143
132
71
139
123
60
146
122
57
145
124
63
149
132
73
172
154
90
170
146
80
161
153
105
193
193
162
146
148
100
129
128
85
142
155
121
162
170
134
168
174
139
169
176
141
172
177
141
167
174
140
166
175
140
171
176
139
173
180
147
176
181
148
174
180
148
176
182
150
180
187
155
171
181
144
164
180
130
118
157
98
106
149
94
112
155
99
136
165
110
101
141
83
88
131
77
91
131
80
102
147
88
73
104
52
82
106
73
163
179
150
183
193
167
173
186
157
171
185
160
158
175
136
137
151
110
161
174
147
173
185
164
172
188
165
151
163
120
146
161
122
131
149
101
135
153
109
126
145
104
152
131
73
144
138
85
151
146
97
148
149
102
138
127
69
161
138
71
148
126
62
179
155
96
193
186
148
197
199
172
176
171
134
171
166
128
147
141
104
132
145
105
149
153
113
140
142
98
117
115
67
110
117
90
139
141
96
143
125
66
164
146
95
182
185
149
163
161
119
193
193
165
184
186
151
138
152
118
152
165
134
164
174
141
166
174
139
173
181
147
169
177
144
176
181
150
176
183
151
171
177
144
176
182
149
181
183
148
182
186
153
178
184
150
181
185
149
173
183
143
126
156
103
113
145
97
119
156
108
120
155
103
108
138
90
104
131
89
112
147
103
117
147
101
110
131
91
105
122
87
146
172
144
184
198
178
168
184
157
168
181
148
140
157
102
121
138
83
158
173
141
151
165
132
166
179
146
137
149
90
139
155
110
127
146
92
125
143
94
117
137
84
141
134
84
140
145
101
153
147
93
134
133
91
127
123
75
158
133
76
191
171
118
177
162
105
165
154
99
170
159
106
165
154
109
175
184
158
177
180
147
155
156
109
159
151
98
157
153
101
148
164
133
144
166
139
131
149
113
134
135
92
161
161
121
185
187
162
189
199
180
205
209
192
210
215
198
199
202
172
140
153
117
146
162
129
167
176
142
168
177
143
170
178
146
171
179
148
173
181
149
172
180
146
176
182
151
180
183
146
181
185
149
179
182
146
180
183
148
182
186
152
176
183
148
157
169
133
148
165
133
152
164
129
151
164
129
145
161
129
139
157
127
133
153
123
133
151
122
162
177
155
149
169
138
175
192
166
149
171
127
141
160
101
129
145
81
123
139
76
145
159
116
137
149
93
147
159
107
126
139
76
128
141
83
130
148
96
128
146
98
108
132
80
105
92
62
153
166
133
154
143
80
145
126
65
152
131
67
181
164
122
194
180
137
180
176
132
138
135
81
121
104
58
150
163
135
174
181
149
171
172
130
174
166
110
170
165
111
171
166
119
154
154
110
123
129
83
131
129
80
147
151
101
144
135
81
150
141
93
199
196
170
217
218
200
203
209
192
213
216
199
192
197
170
164
174
137
170
179
146
169
179
145
169
177
144
174
179
143
175
178
143
182
185
152
180
182
147
182
185
150
178
181
144
180
182
143
179
182
144
185
187
152
184
187
151
180
184
145
145
159
122
140
156
120
131
148
112
131
149
114
131
148
116
132
150
117
131
150
125
200
209
196
186
197
161
130
162
108
114
155
99
128
154
95
134
144
82
136
143
80
125
143
77
129
140
82
125
141
82
116
134
73
120
139
76
123
139
88
133
148
98
116
136
79
107
95
55
131
137
88
146
128
72
199
186
138
165
143
93
208
195
155
180
167
123
166
176
144
153
162
119
138
134
90
149
146
101
167
145
80
160
150
98
188
177
128
169
156
96
146
130
65
155
139
77
151
137
73
154
138
73
139
140
86
146
131
79
184
174
120
148
136
92
192
195
169
183
199
185
194
206
188
200
208
191
203
205
175
160
166
132
149
159
126
153
163
129
156
164
128
166
170
134
169
174
136
174
180
147
177
182
148
179
185
151
168
175
138
168
177
140
169
177
141
175
181
146
187
189
154
182
186
151
150
161
123
128
147
111
128
145
109
129
148
115
128
150
121
153
172
158
222
224
210
216
220
192
106
134
75
105
144
87
128
153
92
134
147
87
128
142
83
121
137
74
130
145
85
128
142
85
127
144
86
136
151
104
141
153
103
140
147
99
120
133
77
78
64
44
142
160
128
144
142
102
169
154
97
185
165
115
182
174
128
184
187
154
163
181
154
133
149
117
167
172
133
154
134
67
157
132
63
163
142
87
177
169
118
163
150
86
160
140
71
155
141
73
137
123
63
139
116
52
151
135
72
146
124
60
169
146
83
136
139
100
182
194
174
182
200
187
201
210
194
214
217
197
194
194
161
136
150
115
120
137
107
127
141
112
126
142
111
127
141
110
126
139
108
133
145
110
136
149
114
150
158
124
159
167
131
166
172
136
168
174
139
166
173
136
168
173
140
171
176
144
182
186
151
150
163
127
131
148
113
130
149
116
132
150
122
193
203
192
217
220
206
222
225
208
162
179
128
110
149
92
119
157
103
125
158
98
119
145
77
116
137
76
125
143
89
122
139
85
123
138
86
146
161
110
118
133
84
114
130
81
112
129
75
128
103
52
161
142
76
152
129
59
171
142
67
177
152
79
151
135
68
149
134
72
137
143
97
144
157
121
133
126
71
168
150
80
146
129
66
140
134
81
164
154
105
161
145
78
134
121
65
142
130
71
147
150
104
170
167
122
146
132
74
145
129
66
161
138
68
138
139
89
165
164
144
212
214
196
211
214
198
223
224
206
194
203
178
147
163
137
131
165
145
124
158
139
117
153
133
117
154
132
117
154
132
106
147
127
94
141
120
100
145
124
100
143
121
99
140
114
100
132
103
116
139
110
128
145
113
130
146
114
132
148
118
163
172
139
133
145
109
130
147
113
148
167
151
215
219
205
218
221
207
221
225
211
200
206
170
88
116
59
92
123
63
120
141
79
131
141
81
122
137
77
114
129
68
126
137
80
135
145
95
147
155
98
112
124
77
130
135
83
122
134
81
159
124
55
154
126
54
160
133
54
160
141
99
161
156
109
158
141
74
138
114
42
125
111
50
140
119
56
128
124
73
138
126
70
153
141
80
153
140
86
178
180
140
166
170
131
132
128
80
89
84
46
141
143
97
171
176
145
161
169
130
150
150
105
175
176
139
148
148
108
48
34
29
187
198
182
193
205
190
200
209
193
197
208
184
112
114
82
127
138
107
159
160
123
127
144
128
121
131
99
120
143
115
139
150
119
158
177
159
135
156
118
95
126
97
154
177
160
151
180
158
105
145
128
117
159
141
129
164
141
136
160
140
186
189
161
178
181
150
177
181
153
195
202
187
216
220
205
204
208
187
213
218
204
223
226
202
117
126
72
119
136
72
122
133
71
135
140
85
127
136
79
122
132
72
125
134
80
140
142
89
138
140
81
128
132
82
123
130
80
110
121
66
146
120
55
119
91
32
142
116
43
183
171
129
175
173
131
155
152
97
118
102
53
128
133
84
144
125
62
136
128
75
134
129
92
174
176
135
148
139
82
177
174
131
193
195
165
161
156
109
129
116
52
166
157
110
163
170
132
181
181
151
200
201
167
157
158
118
157
160
124
46
29
27
191
201
184
191
203
188
197
208
192
184
201
178
93
98
72
169
175
145
181
176
136
148
156
139
139
142
108
170
174
142
167
164
128
186
192
174
153
172
144
138
167
149
218
221
205
208
209
178
150
152
126
193
186
149
203
201
167
165
168
155
217
220
206
222
224
210
222
225
210
218
220
206
215
219
205
215
219
203
214
219
206
223
226
211
169
170
132
122
130
70
121
124
67
125
126
69
129
131
73
130
130
73
135
139
84
143
144
86
122
122
69
128
131
79
112
120
73
103
113
58
137
114
50
142
110
38
111
88
32
193
184
156
182
191
162
155
150
101
141
126
57
128
128
77
114
103
49
93
90
51
159
157
135
178
189
161
157
168
136
180
187
164
190
205
188
145
149
116
85
85
71
170
181
150
167
184
160
154
172
142
173
191
171
161
184
157
116
133
101
45
31
29
187
199
183
187
202
186
165
194
180
166
195
173
81
89
64
152
159
130
181
178
142
154
160
142
136
138
103
162
168
136
166
164
130
187
192
176
174
189
168
201
209
194
225
226
209
206
207
176
153
156
132
189
186
152
203
201
167
171
173
158
155
183
173
213
218
205
223
226
212
218
220
205
211
214
197
212
214
196
214
217
201
220
223
207
189
195
153
115
145
84
112
122
64
115
120
65
134
137
82
118
124
67
143
146
88
127
129
72
110
112
61
130
129
77
114
113
62
89
96
47
124
107
48
89
73
24
118
107
53
187
193
172
179
199
177
110
114
69
85
92
67
125
145
113
96
108
74
85
89
53
133
141
123
178
194
179
178
198
186
186
203
190
192
208
191
123
138
108
79
88
73
158
177
152
205
208
184
190
194
163
170
188
162
130
166
141
97
122
92
51
39
35
187
201
184
175
198
183
179
201
185
147
188
167
62
77
56
165
169
139
186
184
150
158
165
145
129
133
100
177
179
147
167
166
133
188
194
176
190
197
176
221
223
208
224
225
208
204
205
174
165
167
144
199
192
156
204
202
170
174
177
161
136
180
173
195
207
198
228
230
217
216
217
188
98
91
55
88
94
57
106
118
77
185
189
169
163
177
125
107
130
66
107
111
54
117
123
68
160
159
104
137
141
82
145
146
89
125
125
69
126
121
60
127
127
78
119
120
67
106
116
65
113
96
48
108
90
49
137
124
64
182
182
148
132
143
107
154
179
161
153
173
150
166
185
165
164
189
171
168
189
170
165
189
174
194
208
193
183
202
188
194
205
191
174
199
185
114
130
100
69
78
73
203
210
192
207
210
190
201
206
182
184
198
178
161
191
172
105
130
101
69
59
51
209
215
197
200
210
192
163
193
180
133
178
160
68
98
83
189
196
175
183
184
151
161
173
153
131
145
116
197
201
178
165
170
137
191
199
182
194
201
183
222
223
208
223
224
207
201
206
176
169
177
155
203
197
168
203
206
177
177
188
169
143
182
175
213
213
196
227
229
215
207
209
178
97
121
59
103
132
91
127
159
134
212
217
198
170
177
132
135
140
88
119
129
79
143
144
83
146
145
90
144
141
89
157
157
101
126
127
69
131
124
65
126
123
71
122
122
71
110
112
57
92
80
41
80
62
26
116
84
35
203
196
161
136
142
104
155
170
144
173
194
178
194
204
186
183
202
189
168
196
185
166
194
184
193
201
187
189
201
186
192
204
190
171
201
186
121
132
99
104
101
88
195
202
185
192
198
182
190
199
182
201
212
196
206
215
196
116
133
105
82
70
61
200
204
187
193
204
187
195
212
194
117
161
139
98
105
74
155
169
152
206
210
192
206
212
194
208
213
195
209
214
195
210
215
196
216
221
201
184
185
150
171
152
115
215
210
190
217
220
199
175
171
125
111
106
46
200
198
178
219
223
204
140
169
139
121
107
46
193
182
163
203
205
174
91
117
87
122
157
136
194
211
196
227
227
207
155
163
112
95
114
60
131
124
72
123
108
66
152
153
98
129
124
69
158
147
91
149
141
83
150
139
82
131
128
76
139
138
86
116
116
61
79
68
37
71
57
24
96
95
44
112
108
75
183
197
181
194
207
195
188
207
196
196
208
194
179
199
189
198
207
194
185
205
190
151
173
152
158
169
145
169
188
173
194
207
190
155
170
141
137
151
132
184
198
180
168
193
176
191
201
184
221
219
203
214
219
199
131
144
110
68
78
62
165
193
180
197
208
193
205
215
191
80
87
62
48
36
12
85
80
69
196
202
184
210
212
194
212
214
195
211
215
196
214
217
198
223
225
197
121
120
59
102
101
34
157
148
119
215
214
180
109
110
45
97
106
49
158
161
125
221
224
200
109
128
73
80
90
30
115
108
74
196
198
167
107
134
107
171
194
182
224
229
215
226
227
208
155
163
110
121
129
73
134
133
86
98
94
43
100
93
42
94
84
37
115
105
58
147
145
89
115
109
61
137
135
83
132
130
80
103
107
56
76
54
32
55
50
24
107
105
59
166
191
176
191
205
193
200
210
197
212
217
198
149
157
137
156
156
140
205
211
194
199
209
191
139
171
147
167
179
150
176
191
171
154
172
157
172
185
170
176
191
169
151
162
134
158
158
138
170
181
156
174
180
157
189
186
160
203
206
187
210
219
200
205
213
197
201
213
197
180
190
161
50
31
16
41
24
12
43
41
16
181
183
166
209
212
193
213
215
195
213
216
197
217
218
196
205
201
158
93
99
36
91
95
32
83
84
39
187
188
139
87
98
33
114
115
73
162
165
112
193
183
138
110
120
47
104
111
41
93
106
38
149
145
91
113
122
69
213
215
197
223
219
200
227
226
205
149
137
93
109
100
64
141
136
84
118
111
54
110
108
55
90
87
39
93
85
43
150
145
90
116
112
61
128
128
76
119
115
67
106
102
56
97
85
48
117
118
76
76
84
41
194
205
187
178
197
177
179
172
149
173
166
141
88
93
57
55
37
24
163
154
130
165
158
135
164
162
127
148
132
99
120
123
85
83
82
43
76
82
52
149
141
101
81
83
44
54
53
19
90
90
63
126
137
97
141
153
115
178
175
141
172
168
140
175
167
146
203
191
165
139
134
102
45
38
17
44
33
17
69
71
25
138
137
94
175
168
127
185
175
132
167
156
124
184
181
130
127
121
54
108
107
42
113
113
43
111
115
41
126
120
46
106
117
42
108
116
65
160
165
111
87
92
30
92
101
37
80
95
34
67
91
32
69
91
33
73
88
35
160
161
114
172
177
131
175
181
143
121
147
108
110
140
112
139
151
114
128
138
103
123
132
98
124
130
92
97
107
79
124
128
91
129
129
85
127
131
83
131
135
86
129
135
82
62
37
31
107
89
56
63
48
20
85
50
25
91
69
35
81
68
31
79
79
43
110
121
64
59
46
22
75
64
29
58
48
24
73
74
39
55
38
21
72
72
37
59
61
25
73
70
33
82
86
38
63
75
31
54
57
25
45
23
15
63
49
22
78
69
29
64
48
21
67
54
29
97
89
40
83
76
31
50
38
17
52
44
19
49
44
19
52
60
23
69
78
27
68
75
24
68
70
25
182
177
128
154
158
93
79
94
32
67
86
29
65
82
27
66
82
27
76
92
31
72
89
28
133
124
64
161
164
95
112
130
68
110
130
67
115
132
71
136
157
92
135
163
100
138
163
102
153
171
106
155
173
107
155
172
107
153
173
111
153
175
118
151
174
117
149
174
119
145
173
124
135
167
123
131
165
127
132
167
134
132
168
140
129
166
143
128
165
147
117
152
127
67
55
35
55
36
21
48
21
16
48
18
16
45
17
13
42
16
12
76
55
28
178
172
103
72
63
29
80
74
33
84
80
36
136
131
71
79
80
38
89
83
37
71
87
35
49
36
17
54
44
21
68
83
34
64
81
32
47
40
19
47
29
17
44
26
16
42
19
14
76
76
38
122
106
47
102
93
38
50
53
22
47
52
20
59
70
29
78
98
41
74
93
36
74
95
37
79
91
38
146
132
65
160
160
86
155
172
101
152
172
101
147
169
101
143
168
102
150
172
108
150
171
104
141
167
102
146
166
100
148
171
107
148
172
109
146
171
107
150
172
109
148
170
107
150
172
110
150
172
109
147
169
106
150
170
107
147
168
106
147
169
108
146
167
109
146
166
107
146
166
107
149
167
109
149
167
112
153
170
116
153
172
121
156
174
125
164
181
135
147
166
116
105
110
67
66
61
27
49
26
16
48
29
17
47
27
15
46
27
13
77
61
25
188
159
86
75
76
31
60
58
24
105
97
41
93
82
35
102
94
46
125
118
61
78
78
33
47
28
17
47
29
17
51
42
18
68
71
31
82
95
40
47
37
17
47
41
17
65
65
26
93
100
47
137
138
69
149
160
89
148
167
97
137
163
95
149
169
102
159
174
107
160
176
107
164
176
106
161
175
105
157
173
102
144
167
95
145
167
96
148
169
100
145
169
100
144
170
100
149
169
99
154
169
102
151
169
103
148
169
101
144
166
99
141
164
99
143
167
105
147
169
107
147
168
107
146
166
103
152
169
106
150
168
105
144
165
102
146
167
109
147
167
109
149
169
112
149
168
109
146
169
113
148
169
113
145
164
107
146
162
105
147
161
112
156
174
125
164
180
133
146
165
118
146
143
90
92
100
40
106
122
47
105
117
44
65
75
24
72
89
34
100
125
51
100
124
50
104
128
52
101
127
51
108
133
59
82
112
43
87
95
35
108
116
48
120
138
66
136
150
77
129
141
70
145
155
80
136
147
73
146
157
81
128
147
73
132
155
81
147
166
93
163
175
103
167
176
103
159
173
112
153
173
133
154
175
145
141
167
141
133
159
137
137
164
142
130
161
142
120
159
141
129
163
141
129
163
138
139
168
139
134
164
133
144
170
132
139
162
109
146
163
96
148
164
98
147
165
100
152
168
102
151
167
100
151
166
101
152
167
102
153
167
102
147
165
103
148
167
101
146
166
100
146
166
102
146
166
100
146
166
104
143
164
104
146
165
105
150
165
104
155
170
112
151
170
111
150
170
112
137
160
100
85
98
63
140
152
108
162
178
133
149
167
118
139
141
78
120
132
57
130
141
65
134
150
70
139
157
75
160
169
86
165
173
89
165
173
90
166
173
90
163
172
88
165
172
90
165
172
90
157
171
90
159
169
88
162
169
90
161
171
93
155
167
90
149
164
90
152
167
93
153
168
94
153
169
97
157
170
99
163
170
100
163
169
101
163
185
153
129
167
158
99
149
149
83
151
152
75
157
165
73
141
143
70
142
142
66
137
141
57
131
146
44
145
170
46
145
169
47
134
160
54
135
156
74
161
172
105
178
179
144
183
168
156
175
129
154
166
99
156
167
99
158
170
104
158
171
106
154
170
106
151
168
103
150
166
103
155
170
105
152
167
103
151
168
103
149
167
102
147
166
102
148
165
104
145
164
101
153
167
103
157
170
108
162
173
113
168
178
123
154
170
110
62
84
49
100
132
88
139
163
117
151
167
114
160
160
84
169
171
91
169
169
91
169
169
91
170
171
91
172
174
95
170
172
94
163
169
90
166
171
93
170
171
94
160
167
90
160
164
87
162
165
88
157
165
89
153
164
91
157
166
94
161
171
98
160
171
101
150
167
95
140
162
92
133
160
90
144
164
95
150
164
101
180
193
167
158
181
168
95
161
156
84
153
151
98
161
155
62
156
160
103
148
124
127
172
144
117
163
137
91
142
121
43
148
168
47
167
186
50
171
188
52
161
173
70
149
153
99
166
170
120
180
180
141
189
186
153
187
162
153
172
115
156
171
107
156
171
109
157
171
107
151
166
102
149
166
103
145
166
101
143
164
98
143
165
101
147
165
101
155
171
109
159
172
109
160
173
109
156
167
104
157
170
108
151
168
106
152
170
110
146
167
105
60
74
40
139
161
112
165
183
133
148
166
113
168
172
124
160
168
107
154
159
94
162
166
99
167
170
103
176
184
130
167
177
109
159
173
108
160
171
102
168
176
112
163
172
104
158
167
97
157
167
97
156
167
95
155
166
98
155
167
99
160
170
106
156
167
107
151
163
103
147
160
100
150
160
101
154
163
112
166
190
170
144
179
165
110
162
156
107
166
163
106
163
156
72
138
144
82
163
160
113
161
141
127
166
142
105
154
135
78
130
122
51
138
151
59
174
189
72
182
194
68
182
195
50
163
179
43
128
143
57
139
155
76
162
174
116
178
182
150
190
183
149
175
136
139
162
103
138
160
98
141
161
97
149
166
100
147
166
101
145
163
98
143
164
101
147
163
99
150
163
97
144
161
96
148
163
99
147
163
99
153
168
106
150
166
105
158
172
113
158
176
113
70
91
47
125
142
99
161
178
127
144
164
110
176
169
125
196
199
165
177
184
139
185
180
131
200
196
157
208
200
160
199
195
155
203
203
168
196
192
149
196
193
157
188
189
152
191
190
152
184
188
156
180
188
162
175
190
168
144
175
158
95
151
152
90
149
151
103
158
156
110
163
158
90
146
139
133
175
168
137
174
163
135
164
144
69
132
135
60
137
143
50
129
136
86
153
161
92
171
172
148
191
183
58
132
139
76
151
155
49
132
140
54
139
150
70
171
183
73
181
194
74
182
194
62
177
193
40
150
174
52
122
143
48
134
154
61
152
171
78
165
177
91
163
169
126
176
172
118
172
172
130
179
176
108
169
170
114
169
168
116
169
165
109
161
154
103
147
140
114
148
129
136
162
104
145
165
96
140
161
95
142
161
96
141
157
95
140
158
97
142
162
100
84
104
54
94
111
74
153
173
121
145
165
111
164
162
109
196
182
122
189
178
120
192
185
137
208
201
161
204
199
160
208
203
168
198
192
146
148
190
184
125
197
202
126
197
203
124
197
202
122
199
203
125
200
204
124
200
204
123
200
204
115
198
203
116
198
203
116
198
203
114
197
202
115
197
203
120
200
204
126
201
204
141
203
204
122
200
204
112
194
200
118
191
195
99
187
196
92
186
196
88
182
194
79
181
193
74
182
194
73
183
195
75
182
191
96
187
192
89
189
197
105
196
203
89
192
201
64
181
194
75
184
196
77
184
195
80
185
197
89
186
196
92
186
195
94
185
194
101
186
193
108
188
194
111
190
195
118
190
195
135
192
193
106
178
186
82
163
172
73
144
146
118
150
108
134
157
90
129
154
86
118
149
84
126
156
94
133
161
99
141
169
107
91
117
60
58
71
45
136
164
117
141
163
111
178
144
68
186
153
65
189
156
68
192
162
86
208
186
127
206
184
119
193
174
108
195
172
102
122
169
164
104
185
194
105
187
195
117
192
198
126
196
200
129
196
199
126
194
198
128
193
196
124
192
196
123
192
196
122
192
197
123
192
197
128
195
199
135
197
199
165
201
192
175
204
192
165
203
196
143
202
203
155
205
204
133
197
200
125
197
201
114
193
198
108
192
199
114
194
200
111
194
199
113
196
200
120
196
200
119
197
200
124
199
202
101
193
199
111
197
202
112
196
201
112
196
202
118
198
203
128
202
205
141
206
207
150
209
209
159
212
211
164
215
212
166
216
213
164
217
215
199
224
210
87
141
144
61
122
126
59
101
90
127
146
115
164
181
141
172
192
157
127
155
102
130
159
116
151
174
138
139
164
108
111
150
107
48
80
63
136
165
134
174
185
141
179
158
85
182
154
75
188
159
76
189
152
67
191
154
70
194
157
76
187
156
74
194
162
79
142
164
146
76
178
191
91
190
199
87
171
168
61
88
80
70
94
70
69
105
90
79
147
149
80
177
185
100
171
168
104
167
161
73
169
178
80
175
184
84
176
183
186
200
185
205
210
190
182
202
187
102
187
192
97
185
191
80
173
181
77
175
185
68
170
182
72
172
183
77
175
185
80
176
185
87
179
186
91
181
187
81
168
177
75
167
178
93
183
191
95
183
190
89
179
188
88
177
186
97
181
190
115
189
196
130
195
200
139
199
202
153
203
205
171
209
208
187
216
212
188
219
213
196
213
196
82
118
96
56
86
61
59
83
55
152
165
134
160
170
120
159
173
133
142
161
114
114
139
100
123
134
88
166
170
125
165
177
143
79
143
134
131
157
134
165
173
136
136
148
80
145
156
78
140
156
79
138
154
76
142
151
76
153
156
80
166
157
82
161
159
84
108
131
95
64
118
130
141
159
138
58
90
80
69
90
59
88
124
90
81
126
98
73
101
68
87
143
144
92
171
179
80
167
178
77
164
174
83
170
180
87
172
181
177
189
180
199
201
187
185
200
189
108
186
192
99
184
190
78
170
179
69
171
182
66
170
182
65
170
178
74
156
155
58
168
179
68
170
179
55
158
167
40
152
169
66
173
184
65
174
184
54
165
177
46
158
172
39
149
167
44
154
171
59
168
181
70
176
188
76
182
193
87
187
197
100
191
200
110
194
198
166
173
168
149
166
146
106
117
81
95
131
107
95
131
106
116
118
73
176
159
94
196
199
173
192
200
163
135
149
95
145
139
76
143
150
105
151
177
146
78
114
100
109
134
105
125
141
88
130
148
82
141
159
86
147
161
90
137
156
84
134
154
84
134
155
84
134
155
84
138
158
88
132
155
91
96
132
90
63
117
104
63
97
66
90
120
90
119
163
151
194
216
202
153
178
149
71
92
63
61
134
141
45
131
145
42
125
138
43
129
145
46
134
148
51
137
150
61
149
160
61
150
162
57
151
163
55
148
160
45
126
141
46
127
147
54
133
151
68
140
151
108
138
115
72
149
160
87
157
158
77
142
139
77
132
131
99
150
143
90
150
147
81
148
149
69
146
152
62
156
169
66
162
175
77
171
182
86
176
187
91
179
189
99
182
191
98
181
190
92
178
189
93
178
187
164
194
184
136
163
142
84
91
69
77
75
31
142
127
57
147
119
49
172
150
88
186
159
93
157
143
79
131
132
66
123
140
82
88
129
75
56
66
38
64
77
51
101
134
83
133
145
83
149
163
95
141
162
94
130
155
83
139
160
90
142
160
90
140
159
88
138
158
86
138
158
87
142
159
89
142
160
93
145
162
97
114
142
113
156
180
160
207
206
182
151
176
148
87
105
62
83
100
78
79
134
116
69
107
79
52
104
98
40
101
105
44
110
116
51
121
124
48
121
125
47
122
128
46
117
123
38
101
105
50
109
119
40
105
116
46
107
116
81
119
108
58
118
121
87
127
114
113
129
84
103
115
61
110
149
118
155
187
167
171
198
168
68
108
83
36
49
50
31
89
106
34
110
129
37
121
140
41
132
148
45
137
152
49
140
153
46
136
150
44
129
144
103
147
125
65
74
47
42
35
23
78
51
27
110
87
44
138
141
78
130
132
70
111
127
68
101
124
68
85
125
72
95
138
87
91
137
83
61
68
38
61
65
41
85
118
71
138
150
89
147
161
92
142
161
93
138
157
88
145
160
90
147
162
91
136
156
84
144
157
84
137
155
83
138
152
79
178
190
142
178
188
143
125
144
104
154
180
158
138
177
159
126
157
127
108
120
70
70
61
29
94
94
45
99
106
59
64
67
36
54
62
39
60
71
47
66
80
53
68
79
54
58
74
55
47
65
49
47
69
53
70
89
66
57
82
61
54
71
55
74
89
63
75
92
60
127
134
90
154
152
91
156
160
104
133
166
139
169
182
152
169
178
145
88
143
122
42
35
24
48
34
21
41
48
41
52
72
58
46
75
68
49
78
70
46
70
64
49
67
60
45
56
48
57
46
30
41
20
17
40
19
15
40
44
25
93
125
70
102
136
72
93
131
72
91
126
67
78
117
63
94
129
72
94
137
84
108
146
91
69
87
52
66
69
44
78
104
62
140
154
88
143
161
87
142
161
88
147
161
91
158
165
94
157
168
100
161
168
101
161
169
105
158
165
104
170
170
113
203
192
144
209
196
147
169
170
114
132
144
96
119
135
95
111
122
76
110
120
67
80
94
59
120
131
79
95
109
65
62
78
48
57
68
42
70
87
55
71
87
53
61
71
44
61
73
45
57
65
39
46
54
31
77
87
46
59
62
26
48
43
18
109
110
58
125
121
62
145
143
87
165
158
96
165
158
99
155
166
129
134
172
148
108
159
135
69
108
85
44
32
24
44
27
16
43
15
15
43
16
16
42
16
15
43
20
20
42
20
18
43
21
19
40
19
15
40
19
16
36
31
22
69
103
81
119
151
115
126
155
117
122
153
116
113
144
107
98
138
108
99
141
112
105
146
117
127
161
130
138
172
141
95
127
104
69
101
90
83
115
95
148
152
86
147
161
89
136
159
84
157
162
88
166
161
88
168
166
98
162
164
101
173
175
121
179
181
131
183
181
134
181
182
136
172
172
125
167
167
118
159
155
103
153
170
132
157
169
129
163
171
129
142
159
124
154
168
128
135
158
123
119
149
117
116
149
118
122
150
116
117
146
111
116
146
113
120
149
114
121
148
112
122
149
112
136
153
109
115
138
97
115
135
90
115
125
82
155
153
95
168
165
115
185
180
125
177
175
117
133
131
74
100
109
77
107
115
75
44
42
24
43
50
26
104
102
52
76
105
70
91
122
85
105
137
97
111
140
100
115
146
106
120
149
109
119
150
114
120
153
119
128
162
130
137
166
135
133
166
138
128
165
140
119
163
141
114
159
139
112
159
144
113
162
146
117
165
152
131
176
166
132
180
172
95
152
146
63
117
127
66
110
108
163
174
139
164
181
143
164
186
148
177
188
149
185
187
148
186
190
152
169
187
149
174
188
150
177
191
154
181
193
156
180
192
155
183
191
154
170
183
149
174
185
153
169
190
161
170
190
162
172
192
165
165
189
164
176
193
166
167
192
171
159
189
170
162
191
171
155
188
169
155
189
171
160
191
172
166
193
172
165
193
173
174
197
174
179
197
174
167
190
168
156
182
164
170
191
169
184
196
170
195
202
174
198
204
175
200
204
174
173
195
170
155
184
165
160
186
166
151
181
164
166
187
164
174
190
168
165
194
175
173
199
179
178
201
181
178
202
182
178
202
182
180
204
184
178
204
185
178
203
186
178
204
186
178
204
186
174
202
186
176
203
187
176
204
188
166
199
184
165
199
185
166
199
186
167
200
187
170
203
191
173
206
195
166
202
189
150
185
180
135
169
154
210
212
200
223
227
213
223
227
212
223
227
213
223
227
213
223
227
213
223
227
213
223
227
213
223
227
213
223
227
213
223
227
213
223
227
213
223
227
213
223
227
213
223
227
213
223
227
213
223
227
213
223
227
213
223
227
213
223
227
213
223
227
213
223
227
213
223
227
213
223
227
213
223
227
213
223
227
213
223
227
213
223
227
213
223
227
213
223
227
213
223
227
213
223
227
213
223
227
213
222
227
213
223
227
213
223
227
213
223
227
213
223
227
213
223
228
214
223
227
214
223
228
214
223
228
215
222
228
215
223
228
215
222
228
216
222
228
216
222
228
216
222
228
217
221
228
217
222
228
217
221
228
217
222
228
217
221
228
217
222
228
216
222
228
216
222
228
216
222
228
215
223
228
215
223
228
215
223
228
215
224
229
215
226
230
216
229
233
220
207
214
189
208
201
195
220
217
208
221
217
208
220
216
207
219
215
206
219
215
206
219
215
206
219
215
206
221
216
208
219
215
206
218
214
205
216
211
201
215
210
200
216
209
199
216
210
200
216
211
202
216
211
202
217
212
202
216
210
201
216
211
202
216
210
200
215
209
200
215
210
201
216
211
202
215
209
200
214
209
199
214
209
199
214
208
199
214
208
198
216
210
201
217
211
202
216
211
202
218
212
203
218
213
205
219
215
206
219
216
207
220
216
207
219
215
206
219
214
206
219
214
206
219
215
206
218
214
205
218
214
206
218
214
206
218
213
206
218
213
206
218
214
207
218
214
207
217
213
207
217
214
207
218
215
208
218
215
208
218
216
209
217
213
205
216
211
204
215
211
203
217
213
205
217
213
205
217
213
205
218
213
204
218
213
204
220
216
206
223
219
209
202
202
181
203
190
192
216
205
205
216
203
202
216
202
202
215
202
202
214
203
201
213
201
200
213
200
199
216
203
202
215
203
201
210
197
196
206
193
191
203
190
189
202
189
188
203
190
189
206
192
191
206
192
191
205
192
190
205
190
188
206
191
189
204
192
190
204
189
189
205
191
191
206
191
191
202
189
188
201
187
185
198
183
183
198
184
184
201
187
186
205
190
190
205
190
190
206
191
191
209
194
194
210
194
195
211
194
196
211
197
199
211
197
198
210
196
196
210
197
195
209
195
194
210
195
195
210
196
195
210
196
196
211
197
195
210
196
195
211
197
197
211
198
199
213
200
200
212
200
200
213
201
201
214
202
202
214
203
202
215
204
203
211
198
195
207
193
190
206
192
189
209
195
192
210
196
194
210
198
196
207
194
193
208
193
192
209
194
193
213
199
196
191
180
166
204
191
193
219
207
207
219
208
207
216
204
204
217
205
204
215
202
201
213
201
200
210
198
197
215
203
201
213
201
199
210
197
195
204
191
189
203
190
188
204
190
188
204
189
188
205
190
189
206
191
190
206
192
191
206
191
189
204
189
188
207
193
192
204
188
189
203
189
188
204
190
189
202
187
187
200
185
185
199
182
183
202
181
184
202
184
186
204
188
190
208
191
192
206
189
190
209
191
192
208
192
194
209
195
196
213
198
200
213
197
200
210
195
196
211
198
197
209
196
197
209
196
195
209
195
196
210
197
196
211
196
195
209
195
195
209
195
195
212
199
200
213
200
201
214
203
203
215
203
203
214
203
203
215
203
203
214
202
201
210
195
196
206
190
191
205
191
189
207
192
191
206
191
190
207
193
192
207
192
191
207
190
191
210
192
193
214
197
197
189
181
167
204
191
194
218
207
207
218
206
205
218
207
206
217
206
205
213
199
199
211
199
198
208
196
194
213
201
199
214
202
200
211
198
196
205
191
189
201
188
187
202
188
187
203
189
187
203
188
188
204
190
189
207
191
190
204
190
189
205
191
190
208
194
194
205
189
189
203
187
188
206
192
193
203
190
189
199
186
186
198
182
184
198
183
185
202
185
187
202
187
189
207
192
192
207
191
192
207
192
193
209
195
196
210
197
197
210
196
197
211
197
198
210
197
197
211
198
197
212
200
199
211
197
196
211
198
197
211
198
196
211
197
196
210
197
196
209
196
195
211
198
197
214
200
200
214
202
202
214
203
203
214
203
204
215
203
203
212
200
200
208
195
193
206
192
189
205
191
188
206
192
191
202
186
181
198
184
175
201
186
177
203
188
178
194
184
168
182
171
149
191
183
167
205
193
194
220
208
208
217
206
204
216
205
204
217
205
204
213
201
201
212
201
199
210
197
196
214
202
199
214
204
200
211
200
197
206
194
190
201
189
186
202
188
187
202
189
187
205
190
189
204
190
189
204
188
188
203
188
188
205
190
191
209
195
194
205
191
192
202
188
189
206
193
193
205
191
190
201
187
188
201
186
188
201
188
189
203
188
190
205
189
191
207
191
192
207
194
194
209
194
195
210
196
197
211
197
199
211
199
200
213
198
200
210
197
198
211
198
198
210
196
196
208
195
195
210
197
197
212
199
199
211
197
196
210
195
195
210
196
195
210
196
197
212
198
198
211
201
202
213
201
202
212
201
201
213
199
200
210
197
197
208
192
192
205
189
188
204
189
188
205
190
189
198
183
176
197
186
174
202
190
180
201
189
177
204
193
181
190
180
160
191
182
166
206
193
195
218
208
206
219
208
207
217
206
205
215
205
203
214
201
201
210
197
197
208
195
194
213
201
198
212
200
197
209
197
193
204
191
188
201
188
186
202
188
187
201
188
187
204
190
188
202
187
187
202
187
187
203
187
187
206
190
191
207
194
193
207
192
192
205
190
190
205
192
191
203
190
189
201
187
186
202
187
188
202
187
188
202
187
188
204
189
191
206
191
193
209
194
194
210
195
194
209
196
196
212
198
198
212
199
199
213
201
200
213
199
198
210
196
196
210
196
196
210
195
196
210
197
197
212
199
199
212
199
199
211
197
197
210
196
197
210
195
196
212
198
198
214
200
200
213
201
201
214
200
201
212
196
198
211
196
196
208
191
192
205
190
190
205
187
187
204
187
187
199
184
178
199
188
176
201
189
178
198
188
176
201
191
180
195
186
169
189
182
164
207
194
195
219
208
207
220
209
208
219
209
207
216
206
204
213
201
201
211
199
198
209
197
195
212
202
199
211
199
196
208
196
192
204
192
189
202
189
187
200
186
185
199
185
184
203
187
185
203
188
187
204
189
187
202
188
188
206
190
190
207
193
191
203
188
188
202
185
187
204
189
189
203
189
188
200
187
185
201
186
185
201
185
186
199
185
186
204
188
189
205
190
191
208
194
194
210
197
196
211
198
197
212
199
198
212
199
198
213
200
199
212
198
197
210
195
195
210
195
195
210
196
196
210
196
197
212
198
198
213
199
198
212
196
198
212
197
197
211
196
196
212
197
198
212
199
199
212
200
200
213
198
199
209
194
195
207
191
193
206
191
192
204
190
190
203
187
188
201
186
186
198
182
177
200
186
176
202
190
178
201
190
179
202
191
179
195
186
172
190
182
165
206
194
194
219
208
207
220
209
208
220
209
208
217
206
205
213
203
202
211
200
199
207
195
194
212
201
197
212
200
197
208
196
193
207
194
191
204
190
189
200
187
185
199
186
184
199
184
183
201
186
185
205
188
188
204
188
188
205
190
189
204
188
188
201
186
186
201
185
186
203
188
188
202
188
187
201
186
184
199
184
182
198
183
182
200
186
186
199
186
185
205
189
191
208
194
194
210
196
195
208
196
197
211
198
198
210
195
196
210
195
196
208
193
194
208
192
193
208
193
194
209
195
195
209
196
197
212
198
199
212
199
199
211
198
199
210
196
197
210
196
197
210
196
197
212
198
199
212
200
200
212
199
199
209
196
196
207
194
195
208
192
193
204
189
189
204
190
189
203
188
187
198
184
178
197
186
174
201
188
178
200
189
177
203
192
181
193
183
165
186
178
160
205
178
179
218
192
192
218
192
192
218
193
192
217
193
192
216
192
190
211
186
185
206
182
180
211
187
184
213
188
186
208
184
181
206
181
177
203
177
174
202
177
175
199
175
173
200
174
173
202
176
174
205
178
177
204
177
175
202
175
174
199
172
172
199
170
172
201
174
175
202
175
176
202
176
175
200
174
173
201
175
174
199
173
173
199
173
173
200
175
175
203
176
178
205
179
181
209
182
184
208
182
184
211
185
186
211
182
185
211
181
184
208
179
181
207
178
181
207
180
181
209
181
182
210
182
184
211
186
186
213
185
186
212
184
185
212
185
185
212
184
185
212
183
184
212
186
186
214
187
187
212
185
185
212
185
185
210
184
185
209
182
182
206
180
179
206
179
177
204
177
176
199
173
167
199
175
164
200
176
164
200
177
164
200
177
165
199
177
164
184
164
146
