P2
# Tre
64 64
255
104
107
118
112
110
101
81
74
63
62
68
64
112
82
95
147
99
128
155
165
182
175
174
174
178
179
178
178
179
179
175
176
175
172
171
171
172
173
171
171
175
171
178
180
175
157
132
85
102
94
82
89
91
88
65
61
53
99
167
154
153
174
178
168
120
112
97
107
78
81
60
95
88
65
54
66
67
52
58
84
129
109
150
191
188
185
184
183
182
181
181
182
182
183
183
183
182
184
182
181
181
181
181
181
181
181
181
181
184
163
115
118
66
106
105
98
91
120
146
138
53
107
175
184
179
127
92
106
88
108
113
92
79
72
62
129
128
75
55
49
81
95
64
139
120
80
96
190
189
186
185
184
183
183
183
183
184
184
184
183
182
184
183
182
181
181
181
182
182
182
182
179
162
162
136
102
121
84
109
152
142
177
178
155
55
122
163
151
140
144
116
125
98
115
102
86
68
64
60
101
165
109
62
76
100
126
119
118
93
148
185
179
189
186
186
185
184
184
184
184
185
184
184
184
184
184
185
184
183
182
183
183
182
183
183
164
87
131
172
143
155
123
124
181
118
154
158
140
64
89
103
91
173
163
83
82
111
79
97
65
79
83
60
69
133
145
63
96
96
130
114
95
81
127
178
191
188
187
186
185
185
185
185
184
184
185
184
184
183
184
183
183
183
183
182
182
182
183
183
178
164
176
154
141
176
164
162
128
134
137
141
109
70
77
72
61
101
94
74
72
116
107
110
103
101
67
61
71
73
71
57
58
48
56
57
123
182
171
193
190
187
187
186
185
185
185
184
184
185
185
185
184
183
184
183
183
183
184
183
183
183
181
181
182
182
182
182
181
179
114
135
148
121
107
110
105
96
98
82
65
88
75
86
63
102
106
102
118
90
91
66
67
66
60
54
47
42
41
41
56
78
153
194
190
187
187
187
185
185
185
184
185
186
184
185
184
184
184
184
184
184
184
184
184
183
182
181
181
182
183
184
185
182
153
112
118
100
91
91
107
88
98
87
63
67
65
65
85
93
99
106
81
66
75
77
71
70
64
56
55
50
50
42
38
44
135
195
190
187
186
185
185
186
185
185
185
185
185
185
185
184
185
184
184
184
185
184
184
182
180
181
182
182
182
184
184
187
191
179
176
122
106
131
95
82
104
90
116
85
76
94
93
72
86
74
59
88
100
98
70
73
75
57
52
53
105
164
130
71
168
194
190
189
203
208
195
183
185
185
185
185
184
185
184
185
185
185
185
185
184
184
184
195
207
197
182
190
185
183
185
187
163
145
122
87
95
100
110
82
100
104
165
169
150
88
86
117
90
83
71
98
86
70
70
69
69
63
56
64
77
132
201
196
199
194
191
213
220
221
221
212
188
184
185
185
185
184
184
185
186
186
185
185
185
184
183
197
216
222
218
222
221
209
193
166
88
85
78
81
78
78
98
82
93
109
153
188
187
120
108
117
83
113
94
104
86
68
89
68
65
61
75
89
120
132
181
188
184
202
204
220
219
219
216
217
201
184
185
186
193
209
204
194
186
187
186
186
187
188
185
217
220
224
223
224
224
203
213
162
88
83
81
81
80
125
73
73
64
78
129
135
112
156
176
109
99
74
124
125
77
69
79
69
70
57
60
85
107
135
116
72
115
176
177
197
221
217
211
214
217
203
187
191
205
218
219
219
208
186
187
189
187
198
208
217
220
210
211
204
219
153
107
91
78
94
83
101
96
112
57
55
59
59
58
63
70
114
170
93
67
78
91
89
74
63
70
78
68
58
54
59
67
49
147
122
103
151
181
179
220
213
205
202
212
217
210
190
195
212
217
218
215
196
192
192
197
209
217
218
222
152
172
162
127
115
111
108
84
110
106
99
86
114
88
55
84
76
53
60
48
56
144
87
100
84
67
67
61
55
62
68
66
59
52
52
61
57
44
73
108
94
135
208
217
211
210
210
213
217
217
213
207
210
214
215
213
216
215
217
216
221
220
219
218
165
157
112
116
88
89
85
69
74
78
98
141
160
115
54
80
72
65
55
44
49
57
101
93
82
60
55
61
66
70
74
70
57
56
48
65
92
44
41
50
70
173
218
216
212
209
213
215
214
214
216
217
215
215
215
212
216
219
220
221
221
220
214
146
151
110
100
90
125
140
133
87
61
78
79
115
90
70
57
75
63
70
62
56
46
53
79
75
103
73
67
84
87
141
101
64
59
54
49
51
82
136
84
52
180
217
219
216
209
207
206
205
206
208
209
215
216
216
216
217
218
217
219
220
219
219
219
203
191
143
67
92
97
116
132
113
108
157
108
121
124
74
63
83
75
75
66
62
57
56
98
105
102
115
105
90
104
68
70
59
52
48
45
42
59
46
39
53
91
190
219
214
211
210
211
204
201
201
204
210
215
217
218
219
218
218
218
219
220
220
220
220
204
204
90
110
87
174
138
116
173
153
171
168
132
100
105
79
88
68
97
76
64
68
92
114
90
113
111
94
98
82
116
90
51
63
63
126
173
187
132
79
43
97
170
211
209
213
212
210
204
201
200
203
209
215
218
218
218
217
218
218
219
218
219
218
219
218
158
127
108
109
124
134
170
114
99
102
115
94
96
90
119
74
76
73
90
96
102
97
108
120
76
82
67
64
97
96
53
128
165
185
147
157
201
142
122
158
162
212
217
217
210
211
211
208
206
206
205
208
213
215
214
212
213
215
216
217
216
211
211
213
214
183
157
179
98
129
119
74
90
95
82
104
79
97
129
127
141
127
89
96
98
95
77
86
71
51
50
72
54
62
53
90
44
45
43
105
178
190
209
209
208
209
219
218
215
216
217
218
217
215
212
211
212
215
215
207
201
203
205
203
202
198
197
199
203
210
191
92
84
159
178
116
149
132
100
83
71
82
100
77
108
160
194
168
82
88
64
75
74
70
54
54
56
58
63
43
41
36
41
39
57
171
222
222
218
217
218
219
219
220
220
217
219
217
209
211
213
209
209
214
204
194
195
195
195
196
199
197
198
194
164
95
87
195
213
156
162
142
111
82
73
74
108
101
92
153
187
200
74
65
147
91
62
79
52
85
103
62
67
50
45
40
42
40
59
111
192
228
220
215
215
214
217
218
217
212
214
212
202
200
203
200
198
201
205
194
194
194
197
198
200
199
198
194
125
104
122
190
183
138
145
152
122
104
104
69
78
82
79
77
81
114
88
56
180
174
96
126
51
134
116
60
50
67
47
41
36
39
38
45
130
142
208
220
218
211
209
210
211
210
206
204
202
201
199
197
195
197
203
199
194
194
195
195
195
196
197
198
159
48
88
91
85
119
161
114
91
101
90
105
105
93
70
97
103
93
70
59
192
153
100
84
57
161
170
73
50
103
83
59
57
47
35
45
27
82
210
215
213
210
209
209
207
204
202
203
204
202
199
199
198
200
202
212
210
210
202
195
197
197
197
202
204
150
64
101
122
145
85
102
82
87
81
93
104
122
104
108
96
101
55
56
136
105
81
71
54
93
144
55
56
185
106
128
97
63
122
126
118
147
191
203
202
207
205
198
198
198
205
198
198
200
199
197
200
214
219
220
221
221
218
208
197
201
207
203
127
50
105
82
137
151
129
145
87
75
91
74
73
80
100
112
71
87
61
70
112
83
75
66
51
70
92
57
61
132
189
171
82
96
71
155
181
184
200
203
203
213
213
211
213
211
218
212
207
215
217
213
212
218
219
219
219
217
216
214
208
212
217
216
185
160
169
193
202
215
214
169
88
68
66
83
61
66
88
103
77
81
56
69
82
70
74
63
54
71
91
61
60
99
138
112
73
44
39
84
155
207
205
204
211
217
216
214
214
216
216
212
219
218
217
219
218
217
217
218
215
216
213
212
214
218
215
212
217
201
213
209
195
129
96
90
120
51
50
111
162
122
68
63
67
93
86
102
119
95
85
77
52
69
77
63
59
83
87
109
156
129
35
35
117
204
206
205
205
213
213
212
207
209
211
212
210
215
217
217
216
218
217
217
215
211
207
207
209
214
213
203
213
223
225
223
182
142
50
83
94
58
49
128
201
196
147
123
95
57
120
111
116
99
92
94
87
81
100
70
62
70
69
77
155
170
146
97
152
210
209
208
206
209
214
214
213
208
205
206
208
206
214
216
213
212
214
214
211
208
207
204
200
198
205
204
209
188
191
170
79
75
49
43
55
58
52
71
154
192
218
196
184
128
112
103
79
98
122
119
84
81
97
64
75
53
77
70
114
133
184
211
203
176
214
212
210
211
210
211
216
220
217
214
212
207
209
207
206
205
205
207
209
207
206
207
206
210
214
209
217
162
88
41
39
49
54
57
78
59
52
51
56
66
151
182
199
197
97
113
92
76
88
80
61
71
66
57
64
55
52
51
54
76
133
183
147
97
179
156
176
178
194
181
142
168
193
186
181
185
197
178
191
205
200
200
192
210
210
214
215
223
224
222
167
69
36
51
65
70
88
91
112
50
50
73
89
75
67
166
206
202
107
110
89
76
78
83
59
61
57
53
53
57
51
58
54
62
77
106
69
47
68
78
83
81
96
108
84
82
119
110
82
102
96
101
121
122
148
114
70
151
185
139
129
155
151
152
54
52
37
41
60
62
97
79
55
45
51
95
102
154
191
221
220
214
97
114
87
86
69
70
59
59
58
53
53
58
54
51
48
66
73
98
71
43
68
78
71
74
70
93
77
81
85
83
67
96
61
102
99
82
85
72
54
73
102
72
92
75
68
54
40
39
42
37
40
66
137
113
86
47
53
132
125
182
109
157
189
186
102
98
72
77
64
61
56
57
69
64
60
55
53
48
46
48
67
91
81
53
66
65
84
62
50
74
72
77
76
81
60
90
46
77
78
69
89
79
69
62
62
53
107
114
61
63
60
81
61
45
55
75
77
93
83
52
56
91
102
104
92
82
109
91
79
67
71
59
57
61
59
59
78
68
58
52
51
52
45
45
47
41
65
52
63
69
89
67
45
57
63
56
65
89
56
85
42
42
73
47
89
84
67
29
39
34
48
58
53
49
53
69
52
47
49
50
59
107
103
78
90
101
95
86
95
82
95
96
63
74
64
62
72
70
56
61
72
58
55
50
51
48
47
43
42
36
36
59
76
50
75
57
43
43
37
45
63
76
43
81
36
38
66
52
83
86
58
28
30
30
36
38
36
37
39
50
41
43
39
41
51
83
82
99
105
97
94
82
67
68
69
62
54
60
106
125
135
88
62
65
72
58
54
51
55
52
45
44
47
42
33
48
63
35
73
46
33
30
49
76
87
77
54
115
39
64
78
46
82
77
50
33
34
37
43
39
42
40
44
47
46
56
51
57
54
66
98
107
106
84
78
67
62
64
49
50
56
61
149
130
141
131
57
61
61
56
55
54
48
47
48
45
51
55
37
100
94
58
74
83
60
63
112
110
102
76
60
98
51
73
87
35
72
58
54
68
50
57
59
79
67
64
61
56
68
85
69
63
50
115
103
82
82
61
55
50
65
54
49
51
58
62
101
70
100
136
58
65
66
57
54
51
51
49
46
46
45
40
56
127
136
106
130
113
113
137
139
142
136
109
76
126
82
104
132
84
80
100
109
111
63
92
71
136
141
143
139
97
93
110
137
65
53
71
72
87
75
59
54
47
52
54
45
54
59
63
60
65
64
77
59
74
92
53
55
54
52
51
49
46
39
36
44
130
140
135
130
129
126
122
117
127
137
130
113
128
129
130
130
122
129
139
133
137
116
107
128
158
169
178
154
142
148
166
134
52
47
45
54
58
70
86
91
49
49
55
50
59
56
55
59
62
63
68
60
62
61
53
56
60
56
54
51
48
41
38
51
88
138
144
138
139
136
143
146
145
142
139
117
111
127
119
134
133
137
127
144
143
140
119
111
113
119
116
121
121
55
42
39
41
43
38
45
54
66
76
53
52
67
67
75
68
53
55
66
61
97
92
80
66
75
52
68
65
59
55
52
49
43
39
84
140
143
144
141
140
137
136
137
135
133
136
138
139
144
142
140
139
136
111
130
138
135
122
124
137
140
142
143
140
81
51
41
40
43
44
46
53
64
68
58
49
60
72
76
121
52
54
92
86
70
96
79
63
59
51
63
72
72
56
49
44
40
35
69
99
107
139
142
139
139
135
134
135
137
138
138
134
137
136
135
134
136
136
138
138
137
136
139
135
131
130
132
97
69
46
40
48
51
55
46
51
57
49
51
76
63
57
60
70
51
52
66
63
62
72
72
61
58
54
59
67
58
55
49
41
36
37
39
33
41
74
90
95
107
110
109
101
108
106
102
125
95
102
101
86
96
89
88
86
87
82
92
123
129
144
140
93
51
39
39
53
63
49
47
50
49
48
70
86
69
52
84
78
55
52
63
52
69
66
64
64
64
57
56
57
62
51
46
43
45
53
57
46
110
76
74
62
62
120
132
124
120
118
108
148
58
110
134
103
121
75
71
89
82
96
125
169
186
188
181
88
39
94
95
43
49
61
63
50
52
75
96
138
129
75
96
71
53
48
87
112
118
88
66
63
65
59
61
67
57
49
44
46
54
68
123
136
177
135
122
92
111
172
171
166
163
142
141
149
76
146
166
152
168
109
101
131
123
141
167
180
193
193
187
146
62
51
84
43
40
43
53
56
55
63
105
169
161
146
113
66
52
54
177
190
177
148
72
62
65
56
56
97
80
48
47
42
35
41
73
161
189
167
153
137
149
184
178
171
174
163
167
164
122
168
180
173
180
144
133
156
182
165
172
184
193
194
187
167
157
144
42
76
50
87
88
57
57
95
135
181
157
85
54
44
51
61
185
194
195
186
77
62
64
56
73
84
75
50
65
44
35
36
62
167
194
179
171
163
173
190
183
174
178
175
177
171
149
177
183
180
183
156
154
179
204
181
179
187
195
197
190
158
103
133
169
136
152
167
126
54
56
92
131
84
92
73
86
47
52
56
186
195
194
196
80
71
78
57
113
138
98
84
72
49
57
34
52
163
197
185
176
169
181
193
185
176
179
177
180
179
165
181
185
180
184
163
161
201
183
185
180
187
196
196
189
177
174
186
191
183
182
186
165
53
52
55
87
66
60
52
54
50
49
51
187
195
195
196
85
70
78
59
91
101
99
81
48
73
159
148
149
189
198
187
178
172
181
193
184
175
177
179
181
180
168
182
185
182
185
168
178
201
158
180
177
186
194
194
188
177
173
187
191
183
182
187
162
52
53
112
163
108
94
104
60
47
47
50
184
194
195
195
81
59
58
55
82
73
70
63
62
50
134
147
113
174
181
170
146
176
182
192
182
174
178
177
180
178
168
182
184
182
185
170
203
197
149
185
162
185
193
192
187
177
173
184
189
183
182
188
159
53
53
110
119
112
88
141
63
41
42
46
186
193
195
194
73
52
51
49
155
163
126
102
127
61
83
62
54
96
120
116
157
180
185
192
183
175
177
175
180
178
166
179
182
181
183
177
213
158
166
199
148
184
191
191
186
176
171
184
189
149
165
170
152
48
47
114
144
162
167
154
71
51
43
47
185
193
192
194
74
53
47
46
171
166
119
111
143
65
44
40
39
55
99
176
185
160
181
192
181
174
176
175
179
180
169
181
180
180
182
195
183
161
205
209
156
182
190
191
184
176
173
182
188
179
165
159
126
48
47
129
169
183
175
154
137
113
45
49
185
193
194
194
77
56
51
49
175
179
118
124
121
90
46
43
42
46
146
197
173
101
130
195
181
175
176
175
179
180
170
180
179
178
180
181
195
206
215
212
183
181
189
190
185
177
173
181
185
179
178
183
152
46
46
129
186
187
174
162
167
143
46
49
185
192
193
193
81
57
55
50
175
175
115
104
134
54
46
48
47
47
84
151
88
72
82
126
171
173
174
173
177
178
168
175
177
177
178
170
174
156
176
166
164
153
189
189
184
176
173
181
185
178
178
182
150
45
46
125
185
185
180
168
171
133
50
52
185
190
190
189
83
57
58
51
171
176
133
52
65
48
41
46
47
52
44
42
73
64
63
118
172
179
176
175
178
177
171
175
175
176
175
100
81
69
64
57
58
138
188
186
182
175
173
178
183
178
177
182
145
45
48
127
184
182
179
174
170
163
48
56
185
189
188
189
87
58
58
53
176
177
135
90
90
52
54
49
45
41
37
36
51
57
57
114
139
182
179
175
180
180
174
175
177
177
177
166
165
147
165
146
118
128
186
186
181
173
172
178
181
177
176
179
142
47
47
124
182
182
177
175
170
167
50
57
186
191
190
190
89
55
54
52
178
178
133
123
172
123
164
143
43
46
40
33
53
54
96
167
177
175
175
176
179
179
172
176
175
176
176
149
123
124
152
152
99
163
185
184
179
175
172
175
178
176
177
181
139
45
48
125
183
179
175
172
169
165
51
56
183
191
188
188
92
56
54
54
178
180
128
107
123
100
73
111
49
44
35
36
40
41
62
44
99
178
177
177
180
181
172
174
177
175
176
161
122
105
114
139
114
177
188
185
179
173
171
173
175
174
175
178
137
47
49
120
179
176
171
169
165
164
53
55
183
190
186
189
94
55
52
55
172
163
117
76
88
61
75
64
42
39
37
35
35
42
55
90
167
179
177
177
183
181
175
174
178
175
175
171
137
111
108
129
140
182
188
184
178
174
171
172
175
174
175
178
138
51
54
117
175
173
169
168
165
163
51
53
183
185
186
189
99
52
49
59
160
104
90
62
82
111
110
84
43
40
37
34
38
42
80
119
168
179
178
177
184
183
178
176
177
178
177
172
152
116
106
137
162
186
191
185
179
173
173
174
177
176
174
177
135
53
57
117
173
171
168
165
164
164
51
54
184
186
185
184
91
49
51
69
179
168
107
81
144
165
135
84
47
61
52
39
39
37
70
139
184
180
179
180
185
184
181
180
179
180
179
176
171
136
108
148
173
190
187
185
178
174
173
175
174
173
174
176
133
52
54
116
173
170
165
164
163
167
48
52
182
188
184
151
62
52
52
77
181
175
107
96
174
176
166
97
60
105
86
72
74
84
142
182
182
180
180
181
185
183
102
140
153
101
170
180
177
160
121
158
187
187
132
170
177
176
171
174
173
173
171
174
131
54
55
101
174
169
167
164
163
168
44
49
136
158
170
97
61
53
50
62
168
177
128
105
170
175
172
131
113
158
148
75
55
84
133
183
183
180
182
183
173
165
94
67
93
98
164
157
152
129
139
143
194
181
127
132
174
174
172
171
174
175
171
172
128
55
57
89
173
169
167
165
166
165
