P3
# Tre
64 64
255
134
119
89
133
124
96
145
134
107
144
124
99
146
115
99
132
111
91
115
80
78
108
73
73
102
52
66
100
50
67
119
37
78
115
33
75
118
119
129
103
78
95
119
87
109
142
159
171
124
91
114
139
133
144
141
179
176
151
181
193
163
201
213
151
197
209
148
196
208
148
195
209
160
193
211
162
194
211
162
193
210
161
193
210
164
193
210
164
193
210
153
194
208
156
194
209
154
193
209
147
194
206
147
192
205
147
192
205
148
192
207
148
194
209
142
195
207
143
194
208
150
195
210
143
194
208
159
194
212
162
195
213
147
197
211
147
174
182
152
142
132
132
66
87
139
97
100
141
83
90
136
64
78
139
77
82
131
83
90
124
81
89
105
55
67
92
58
64
95
37
59
108
102
118
138
191
203
134
174
186
133
173
183
142
202
209
144
208
214
142
197
197
149
143
99
143
136
89
131
104
88
141
125
87
120
76
69
119
80
75
107
49
54
124
98
95
115
88
92
107
60
59
101
43
48
103
59
67
97
66
68
94
45
48
96
50
60
103
84
96
123
142
153
111
121
127
139
173
168
163
220
222
161
215
219
158
210
217
158
209
217
156
208
216
154
208
216
153
206
216
154
206
215
155
207
216
156
206
215
157
207
216
156
208
216
157
207
216
155
206
215
158
208
216
157
206
215
155
204
215
153
205
215
152
206
216
152
207
216
151
207
217
149
208
217
150
208
217
150
208
217
150
208
217
150
212
220
143
189
188
129
127
120
129
133
123
119
62
49
137
115
98
131
116
98
123
104
97
112
92
101
109
139
144
123
174
172
118
166
162
102
42
47
112
117
122
132
210
214
138
220
225
135
215
217
108
155
149
96
104
108
100
122
126
121
96
77
138
123
93
146
130
95
131
99
77
120
79
69
114
65
68
117
45
54
134
142
141
126
143
147
110
73
74
104
44
49
97
38
44
104
79
90
105
102
109
95
63
65
123
163
161
116
138
136
102
84
86
110
102
108
164
219
217
163
215
219
161
211
218
159
209
217
157
208
217
156
208
216
157
207
215
157
207
215
159
207
215
158
208
216
158
208
216
158
208
216
157
208
216
157
205
215
159
208
216
158
207
216
156
205
215
155
205
215
154
206
215
153
206
216
153
207
216
153
208
217
152
208
217
152
208
217
150
208
210
146
195
177
145
190
182
130
154
155
129
113
94
131
134
129
126
85
73
128
114
115
127
176
185
131
170
157
141
212
210
140
211
213
127
185
183
104
46
47
117
135
144
133
203
185
126
181
176
117
170
164
128
168
168
111
133
134
116
144
145
129
109
86
146
135
95
134
116
86
129
87
72
113
64
59
111
53
59
119
39
54
128
101
104
144
189
192
123
114
120
119
44
55
106
70
82
113
101
117
121
143
146
119
135
134
115
137
133
108
104
99
139
169
166
159
214
212
156
206
205
164
215
219
162
211
217
162
210
217
161
209
217
158
209
217
160
208
216
160
208
216
159
207
216
161
208
216
159
208
216
159
208
216
159
208
216
160
207
216
159
209
216
160
209
216
158
208
216
157
207
215
155
207
216
155
207
217
154
208
217
153
208
217
155
209
217
154
209
217
148
194
180
127
97
67
133
149
143
148
202
198
138
170
152
130
180
186
134
141
124
126
135
142
148
217
208
122
134
130
130
184
178
139
189
176
131
173
147
112
58
54
109
95
94
111
125
104
104
101
98
152
204
194
140
194
185
104
90
87
107
88
83
127
127
110
119
80
68
127
102
93
107
59
59
116
76
77
120
79
80
116
42
54
113
60
66
137
149
144
141
167
157
117
49
54
113
97
108
115
104
101
128
153
140
119
129
124
104
102
111
97
79
98
124
148
139
157
203
206
167
218
220
164
213
218
163
212
217
162
210
217
161
209
217
160
209
217
160
208
217
160
209
217
159
208
216
161
207
216
161
208
216
158
208
216
160
207
216
159
206
215
159
208
216
158
206
215
158
207
216
158
206
215
158
207
216
155
207
216
155
207
216
155
207
216
155
208
216
154
208
217
154
204
208
145
187
190
147
203
208
141
181
172
136
161
158
145
206
208
141
193
189
140
196
181
131
152
133
129
151
152
135
162
145
137
177
140
131
134
93
115
70
56
114
82
65
108
82
57
100
61
52
109
116
109
109
109
95
105
83
65
101
79
67
136
134
108
139
122
92
135
120
107
138
118
85
136
113
84
111
59
63
115
45
54
116
62
67
120
64
66
117
63
65
110
43
49
100
49
57
95
37
44
100
48
50
98
48
57
127
136
138
163
216
199
151
196
196
167
221
221
166
216
219
164
211
217
164
211
217
163
210
217
161
208
216
161
208
216
160
209
217
159
207
216
160
208
216
162
209
216
163
208
215
161
208
216
160
207
216
159
207
215
160
208
216
158
207
216
158
207
216
158
207
215
159
207
216
158
207
216
157
208
216
155
207
217
155
205
215
154
206
215
154
206
216
155
207
216
152
208
216
155
209
213
152
208
213
150
208
209
130
137
106
139
158
139
135
179
160
134
142
118
130
121
102
140
133
88
138
131
76
132
116
71
130
117
77
119
94
64
103
70
54
122
105
69
113
83
59
122
101
66
102
66
53
130
121
86
138
121
90
137
114
86
152
138
95
130
96
74
131
98
74
113
60
57
113
58
61
113
54
62
111
43
56
106
39
47
95
33
44
89
30
37
87
29
37
87
31
35
91
54
55
100
85
81
147
177
167
168
224
222
164
217
219
163
212
217
163
212
217
164
211
217
161
209
216
160
209
217
159
209
217
160
208
216
160
209
216
163
209
216
162
207
215
162
209
216
160
208
215
160
207
216
161
207
216
160
208
216
159
209
216
159
208
216
159
209
216
158
209
216
156
209
217
156
208
216
155
206
215
155
205
215
156
204
214
157
205
214
156
207
216
157
209
217
156
211
218
153
212
211
138
178
173
127
126
114
131
143
110
129
110
91
124
96
84
125
96
84
140
131
82
125
99
70
122
107
96
123
100
69
103
66
51
107
74
51
104
70
53
104
66
55
115
96
75
128
106
75
133
110
84
140
121
88
122
83
69
114
59
56
113
69
73
122
75
66
117
64
62
118
62
61
114
52
58
106
44
50
102
46
49
97
40
44
94
37
49
85
31
42
80
27
37
83
34
46
132
151
153
171
224
222
167
216
218
165
212
216
163
210
215
161
209
215
160
210
216
161
210
217
161
208
216
160
209
217
160
210
217
161
209
216
161
208
216
161
208
216
161
209
216
160
208
216
161
208
216
160
208
216
160
207
215
159
208
216
161
209
216
158
209
216
157
209
217
154
207
216
153
205
213
156
205
214
157
205
214
157
205
214
157
206
215
159
208
216
157
209
217
156
214
221
161
219
224
148
210
211
152
209
197
132
148
118
124
122
104
131
154
138
119
104
94
123
91
64
122
111
109
117
101
82
117
130
133
103
89
94
100
78
82
111
104
98
116
106
87
116
71
61
125
88
75
115
75
64
104
51
54
127
94
75
134
111
86
134
109
81
116
62
63
117
63
70
115
67
73
105
46
51
96
43
49
96
43
50
121
117
108
147
192
184
117
151
152
88
75
82
154
190
191
170
222
221
169
215
218
170
212
215
198
225
218
205
230
219
181
218
217
160
206
215
160
209
216
159
210
217
159
210
217
159
209
217
160
208
216
162
209
216
160
208
216
161
208
216
161
209
216
162
209
216
161
209
216
161
208
216
160
208
216
159
208
216
157
209
217
180
218
217
205
229
218
184
220
217
159
205
214
173
213
216
163
209
215
156
208
217
156
211
218
157
216
220
152
196
173
144
174
148
135
143
120
120
95
77
120
110
87
117
107
106
124
123
115
122
92
62
117
109
106
114
124
105
134
192
200
130
200
208
124
182
174
101
98
96
105
94
90
127
132
123
127
94
79
116
81
83
107
64
73
137
109
79
125
91
72
115
66
60
117
61
64
117
58
64
113
60
64
111
53
56
101
47
52
104
52
68
102
73
88
138
150
140
175
231
227
169
225
225
174
228
227
170
221
222
171
215
218
215
235
220
229
242
220
229
243
221
229
243
222
213
234
219
168
211
216
160
207
215
161
209
216
161
208
216
161
209
216
160
208
215
160
209
215
161
209
216
163
210
216
162
210
216
161
210
216
161
209
215
160
209
216
159
209
216
157
208
216
188
219
216
221
238
220
230
244
222
223
240
221
231
244
222
229
244
222
204
232
222
170
219
222
153
193
182
124
97
75
126
93
66
122
84
59
122
88
63
108
76
80
112
84
70
124
110
92
122
95
61
111
102
96
113
122
122
126
181
183
151
220
223
147
223
221
112
145
135
105
122
127
120
136
126
124
85
70
123
120
126
116
96
102
132
115
96
126
91
72
115
61
60
122
86
89
115
58
61
113
51
61
108
51
55
113
69
73
120
91
88
123
129
138
132
147
148
167
211
196
170
222
203
172
214
197
184
228
226
195
227
220
228
242
220
227
241
221
224
241
222
220
239
221
222
240
221
191
224
218
161
207
215
162
209
216
164
209
216
180
215
216
207
231
220
198
227
219
179
217
217
164
210
216
164
211
217
164
210
216
163
210
216
165
211
216
167
212
217
163
209
215
222
239
220
228
243
221
232
246
224
232
245
224
233
246
224
233
246
224
214
227
198
222
238
210
175
187
154
135
99
62
131
92
58
125
87
61
114
83
77
110
82
80
119
143
143
117
75
59
118
77
54
107
63
52
107
81
77
120
151
148
124
163
148
115
137
116
134
192
174
137
210
211
115
124
118
136
112
80
106
73
74
130
136
137
147
149
110
118
78
67
114
62
62
124
75
70
117
56
64
115
59
66
106
43
52
103
51
57
115
83
89
125
112
114
133
156
148
115
130
134
97
72
77
138
121
116
190
200
170
191
196
174
210
217
196
228
243
222
220
239
222
211
234
220
216
237
220
221
240
220
196
225
218
166
210
215
173
214
216
203
225
217
223
240
221
225
241
221
226
242
221
204
230
220
164
209
215
165
210
216
171
211
215
167
210
215
188
220
217
206
231
219
222
240
221
228
243
221
221
236
203
221
233
211
213
227
202
229
242
216
170
178
142
146
126
79
138
110
57
128
81
56
134
107
71
121
89
71
114
110
110
113
103
102
112
129
125
102
49
50
111
43
41
104
56
48
94
61
54
91
60
53
94
67
58
93
77
72
115
140
118
138
199
204
123
103
83
107
66
59
114
81
70
131
100
73
128
97
74
116
72
64
112
54
55
118
59
64
124
68
72
117
58
61
107
44
53
99
43
51
101
51
55
104
59
70
93
39
47
142
172
158
131
136
130
124
111
104
165
168
151
192
202
179
192
199
178
227
241
222
213
236
221
201
226
218
199
223
216
214
234
219
221
239
221
207
233
220
174
213
215
185
215
215
214
234
219
221
240
221
223
241
222
217
237
221
183
219
217
176
214
216
175
215
217
186
220
217
208
231
219
221
239
221
223
240
221
230
245
223
172
178
136
186
190
170
178
190
149
156
147
109
160
137
79
151
136
77
151
133
72
126
87
69
150
125
85
139
126
85
115
108
104
112
86
92
132
125
117
109
96
90
110
43
43
105
87
92
96
86
78
86
53
52
88
65
59
84
51
40
90
60
48
129
172
162
128
91
72
132
114
84
114
91
79
110
65
58
110
63
59
106
52
55
111
35
50
117
46
54
117
56
61
117
53
59
109
45
55
97
41
48
96
42
48
103
51
60
95
47
61
92
34
38
109
71
70
133
115
106
116
106
90
153
143
139
214
229
213
220
240
222
211
234
220
209
233
220
210
232
219
215
236
220
222
240
221
221
240
221
214
236
221
205
229
219
209
231
220
214
237
221
217
238
221
214
236
220
219
238
221
218
237
220
220
239
222
220
238
221
228
243
222
227
242
221
226
241
220
227
241
216
177
190
158
173
177
152
150
130
86
153
138
87
129
100
67
137
101
61
132
98
56
117
70
50
124
77
51
117
82
67
120
105
101
132
160
162
165
181
165
130
132
115
107
44
42
107
84
79
100
81
67
94
66
65
86
58
53
81
46
36
84
53
40
95
62
45
138
111
85
127
104
78
119
87
72
104
51
56
103
43
51
108
53
54
119
53
56
114
57
70
117
63
74
121
59
60
105
44
52
100
49
51
95
36
44
99
60
67
105
101
102
86
31
47
88
29
38
93
42
47
97
66
78
183
187
179
223
241
222
219
239
222
212
235
220
208
231
219
215
235
219
218
237
220
217
237
220
216
236
220
219
239
221
220
239
222
217
238
222
216
238
222
217
238
221
213
234
220
220
238
221
225
241
221
228
242
221
228
243
222
228
243
222
227
243
222
218
237
217
164
161
144
166
173
144
139
120
103
142
115
75
137
102
63
152
139
115
153
159
140
148
153
130
119
93
81
106
59
48
112
76
76
113
82
73
123
127
127
116
94
91
109
72
59
109
47
46
108
76
73
93
71
55
100
70
70
87
65
64
88
62
50
80
51
38
92
56
41
121
79
69
114
75
67
134
117
88
110
75
65
106
61
65
127
88
69
128
93
72
138
159
156
126
109
100
113
53
58
106
48
53
99
45
49
96
36
45
94
39
50
107
80
90
130
154
154
101
92
91
96
40
52
186
200
186
220
239
223
223
241
223
218
239
222
208
231
220
205
228
218
206
227
217
204
225
216
205
227
216
208
229
217
210
231
218
217
237
221
219
239
222
219
239
222
218
239
222
220
239
222
222
241
222
222
240
221
225
242
222
226
242
222
225
241
221
225
242
222
224
242
222
206
225
209
198
214
193
152
163
145
120
69
43
133
103
72
142
110
71
138
125
115
142
148
137
130
128
112
122
117
115
152
175
174
119
119
117
129
131
133
136
142
124
115
76
61
114
53
54
115
87
79
105
89
61
96
82
79
91
72
65
94
72
51
85
64
53
93
58
48
130
111
83
137
120
89
134
111
92
135
133
107
140
119
88
132
97
72
138
119
85
115
58
61
116
61
64
107
49
51
100
41
47
92
40
44
89
34
42
90
29
39
93
48
68
86
35
49
82
28
38
92
44
55
116
96
93
196
211
194
223
242
223
214
237
222
209
234
221
209
232
221
210
233
220
201
225
216
197
221
215
198
221
214
203
224
215
211
231
218
218
237
221
220
240
222
223
241
222
224
241
222
223
241
221
223
241
222
222
241
222
225
242
222
226
243
222
226
242
222
226
243
223
226
242
222
208
227
208
208
226
208
120
102
79
132
120
110
115
91
86
176
192
185
143
158
143
129
125
125
161
192
197
143
174
173
161
191
191
156
195
183
147
155
126
134
120
78
137
129
79
112
86
69
115
98
82
100
76
58
111
112
99
103
89
67
94
73
55
96
76
64
125
101
81
145
131
98
127
94
79
131
125
114
140
121
102
137
101
76
139
105
81
127
78
73
141
125
114
121
95
86
102
37
46
101
53
66
98
55
68
135
139
135
166
192
193
187
208
196
131
150
147
102
81
86
80
38
41
115
106
100
179
186
175
208
235
222
206
232
221
214
236
221
212
234
221
209
232
219
201
226
216
198
222
215
198
220
214
203
223
215
210
230
218
218
238
221
223
241
222
223
241
222
223
241
222
222
240
221
223
241
222
222
241
222
223
241
223
223
241
222
224
241
222
222
240
222
224
241
222
224
241
221
160
180
165
138
140
134
126
120
110
129
115
113
137
137
130
137
149
146
161
195
186
129
126
119
128
107
94
138
123
77
147
141
89
132
109
71
133
111
75
120
97
85
113
135
141
104
80
70
107
88
64
99
86
65
102
103
95
103
112
104
133
117
86
133
105
84
140
121
94
140
139
112
117
75
66
125
82
69
112
62
59
111
58
55
130
100
92
123
108
89
101
41
48
141
142
133
169
187
171
175
213
197
159
164
149
165
174
162
185
228
222
135
161
162
127
135
136
160
178
167
171
180
167
220
233
214
221
239
222
219
239
223
208
232
220
211
234
220
210
233
220
207
230
218
205
227
217
205
226
217
204
225
217
207
229
218
214
236
220
217
238
220
215
236
221
213
234
219
216
235
220
217
237
221
219
239
221
221
240
222
219
239
222
212
233
220
209
233
221
212
236
223
211
238
223
179
207
194
161
174
167
171
205
191
117
107
101
134
146
138
130
134
123
109
78
66
121
96
84
137
110
70
125
89
62
141
128
75
121
83
65
126
105
91
132
151
136
140
142
131
142
164
147
118
151
144
91
108
99
107
109
104
130
109
85
131
103
82
119
76
68
125
90
74
116
66
61
100
37
46
97
37
46
114
69
65
104
40
48
110
53
54
99
42
49
120
96
86
90
33
39
88
36
41
90
30
40
117
112
118
165
204
195
176
216
209
209
230
218
217
229
211
214
230
210
216
229
213
224
241
223
222
240
223
217
236
222
220
239
221
221
240
222
223
240
222
222
240
221
219
237
221
213
234
220
211
233
220
212
234
220
217
238
222
216
237
222
204
229
219
193
222
218
196
224
219
200
227
219
197
225
219
194
224
219
185
220
219
182
221
220
183
223
221
189
228
223
202
236
224
183
216
205
116
102
90
112
88
84
157
182
170
178
202
186
136
132
112
155
169
154
149
154
124
139
117
74
124
92
65
117
67
60
123
85
68
122
109
100
111
80
71
124
121
110
145
182
183
163
225
224
142
197
197
123
83
71
128
92
76
107
55
62
117
74
64
118
71
65
114
67
61
102
41
49
101
41
50
102
46
52
108
44
52
108
55
56
91
30
38
87
28
38
83
24
32
84
33
37
85
28
35
96
49
56
177
188
178
230
242
224
230
242
225
223
240
223
219
239
223
221
240
223
223
241
223
224
241
222
226
242
222
225
242
223
222
240
221
224
241
222
220
239
222
208
231
219
211
233
219
214
235
220
209
230
218
210
230
218
216
236
220
195
227
220
177
218
219
177
219
220
177
220
220
177
219
220
179
220
220
184
223
221
179
222
221
179
224
222
173
224
215
144
191
189
108
103
104
112
91
90
202
216
199
214
238
219
165
177
156
163
185
169
149
162
146
139
128
97
123
90
63
115
73
61
117
71
65
126
121
107
121
113
101
113
102
93
153
176
160
174
220
199
170
235
226
114
71
67
116
51
59
150
164
159
119
96
88
105
57
56
116
76
76
108
31
47
118
84
83
126
109
105
111
50
55
116
58
58
96
40
46
91
34
42
86
28
37
87
33
36
86
28
36
97
54
58
136
118
110
203
210
193
237
250
229
227
241
222
217
238
222
216
237
222
216
235
222
221
238
222
222
240
222
221
240
222
214
234
220
217
235
220
212
234
220
199
223
215
197
220
214
202
224
215
198
220
214
195
217
213
199
221
214
201
226
218
177
218
219
175
219
219
175
219
220
180
221
220
184
222
220
186
224
221
184
224
221
179
225
222
172
224
218
120
146
140
114
117
112
127
137
133
188
215
199
182
208
190
149
158
139
149
163
155
155
176
157
145
145
106
142
126
74
135
130
78
111
68
58
117
82
66
116
91
71
112
87
70
111
88
63
115
97
63
122
137
113
120
95
81
113
35
52
166
203
203
164
202
188
116
100
102
131
141
137
106
31
47
144
146
143
132
135
113
110
47
55
109
29
43
100
63
68
92
37
42
87
30
37
83
26
31
85
27
36
84
26
34
87
34
45
149
144
127
161
162
135
216
228
211
225
242
224
221
240
223
212
233
220
209
231
219
209
232
219
212
233
219
210
231
219
206
226
216
203
224
215
200
222
215
198
222
215
194
219
214
192
216
214
190
214
213
191
216
214
199
223
217
187
221
219
176
219
219
175
219
219
175
220
220
175
220
220
176
221
220
175
222
221
175
224
223
174
227
224
142
189
177
83
45
47
104
99
93
110
103
90
112
91
83
133
134
121
164
183
166
139
136
97
133
105
67
139
118
76
126
105
70
131
126
90
134
131
82
126
113
72
111
71
59
130
121
72
132
131
78
119
116
74
111
67
62
115
39
54
185
219
203
153
180
156
124
109
97
113
84
86
111
38
52
165
177
172
158
199
185
114
70
67
108
28
45
113
109
117
104
87
89
89
57
63
92
51
60
88
40
45
78
27
30
82
40
45
71
18
23
94
86
97
208
233
221
214
238
223
212
235
222
209
232
220
207
232
220
206
231
221
203
229
220
196
226
220
196
224
218
197
224
218
199
226
219
192
224
220
187
222
219
186
223
220
184
222
220
189
224
219
193
225
220
212
234
221
207
233
221
207
233
221
190
226
221
176
220
220
178
223
222
176
223
222
176
224
222
186
229
222
191
233
220
141
178
162
91
64
67
109
114
110
122
139
136
143
171
153
113
96
78
131
118
87
123
89
66
128
95
68
121
85
67
123
104
84
130
121
92
134
141
123
125
123
96
136
139
80
130
115
73
128
126
79
108
41
47
112
37
51
147
164
129
139
119
88
119
85
70
108
65
70
110
34
49
117
95
99
136
167
161
107
38
50
110
40
50
176
210
200
112
120
117
129
143
142
111
110
101
98
54
67
123
138
136
122
142
144
117
134
135
140
167
164
179
215
209
189
228
223
188
227
222
201
230
221
196
229
221
184
222
220
185
222
219
186
221
219
199
227
220
184
221
219
184
221
219
189
223
219
186
222
219
182
222
219
187
224
220
217
236
221
225
241
222
226
242
222
228
243
223
228
243
223
222
240
222
203
232
221
177
223
221
186
226
222
198
231
222
195
228
216
135
149
127
86
49
45
117
119
109
101
90
87
145
153
144
154
174
156
139
146
133
149
166
150
115
93
85
120
79
57
126
107
72
111
82
61
111
78
61
120
87
64
132
122
77
138
145
84
109
79
56
117
106
68
115
52
48
115
68
59
143
133
91
123
87
70
118
74
65
108
61
60
107
30
46
113
60
68
117
96
93
114
37
51
115
46
53
148
149
129
193
211
195
174
198
173
102
91
83
113
103
103
101
73
71
153
173
169
172
206
196
169
209
205
184
226
220
189
229
223
191
228
222
213
236
222
214
235
221
210
233
220
213
235
222
211
233
220
223
240
222
213
234
221
203
229
220
218
236
221
222
239
222
213
236
222
212
234
221
224
240
222
226
241
222
225
241
222
224
241
222
222
239
221
220
239
221
216
237
221
202
231
221
210
234
222
219
239
223
217
239
222
178
210
198
152
182
176
161
191
185
185
217
207
202
225
210
216
239
220
217
239
217
174
194
171
114
98
84
110
73
52
107
68
53
112
98
71
96
67
52
105
69
55
122
106
68
130
131
79
108
90
63
106
93
74
105
49
45
113
65
59
124
85
69
113
66
62
114
75
64
107
54
59
112
31
49
115
63
67
117
97
90
115
43
56
115
41
54
124
104
99
151
156
137
127
122
118
101
73
75
90
34
40
87
30
31
108
85
91
145
176
174
193
233
225
190
232
225
192
229
223
207
234
222
219
239
223
218
238
222
216
236
222
217
236
221
219
238
222
220
238
222
215
233
220
224
241
222
224
240
221
222
239
221
225
241
222
224
240
221
222
239
221
222
238
221
223
239
222
220
237
220
220
238
221
215
236
220
212
234
220
214
236
222
222
241
223
216
238
222
208
235
223
217
240
224
197
224
213
206
238
226
195
236
227
179
222
214
139
148
130
114
111
94
108
97
95
115
141
135
95
46
44
99
44
39
115
125
125
142
188
187
111
145
141
95
80
60
92
73
54
94
80
59
109
113
89
126
94
69
134
117
86
148
147
93
131
106
79
124
90
72
114
78
69
109
31
47
115
61
62
113
73
76
116
49
56
113
42
52
122
85
72
115
92
84
128
116
115
150
180
170
129
150
139
83
23
30
82
26
27
124
126
132
189
230
223
192
232
224
192
231
224
195
229
223
211
235
223
213
236
222
211
234
222
202
229
221
205
231
221
209
233
222
211
235
222
208
231
221
219
236
221
222
239
222
222
238
221
221
237
221
223
239
222
222
239
221
222
239
222
219
237
221
211
233
220
205
229
219
204
228
219
206
231
220
214
236
222
210
236
223
194
226
221
210
236
224
228
247
226
229
248
229
224
247
229
169
214
194
128
170
159
81
55
46
102
89
88
114
103
96
108
51
46
102
38
39
134
143
138
193
225
215
189
222
209
147
168
157
123
143
133
97
112
107
84
68
49
150
147
94
142
132
89
146
142
90
135
111
83
131
100
77
132
101
79
126
94
73
119
83
72
126
106
98
114
64
62
113
48
56
111
65
64
109
63
66
113
75
73
165
176
155
176
195
171
145
165
159
106
107
110
148
168
171
198
236
227
196
235
227
195
234
227
195
231
224
202
232
224
214
236
224
215
235
222
212
235
224
202
230
223
196
227
222
198
228
222
202
230
223
200
228
221
214
235
223
218
238
223
214
235
221
212
234
222
215
236
222
214
236
223
210
233
222
205
229
220
203
229
220
197
225
220
191
221
219
188
220
218
195
229
222
190
230
224
195
236
228
181
217
196
187
216
202
173
199
170
100
94
74
97
81
77
83
53
42
81
42
37
91
58
48
112
47
47
104
41
41
105
74
66
159
180
154
199
220
188
214
243
227
188
222
210
172
212
200
123
151
141
143
133
90
135
121
85
121
79
68
134
103
88
142
137
117
144
138
105
130
82
70
122
81
72
125
105
93
106
60
58
117
74
65
95
47
48
112
74
75
104
75
63
140
125
108
151
153
127
188
203
191
208
235
221
196
232
211
179
202
179
203
241
228
200
240
228
199
236
227
200
236
228
202
234
226
206
233
224
217
240
222
223
243
226
218
239
225
213
236
225
207
235
226
197
230
225
201
231
225
196
230
225
194
230
225
193
230
224
194
229
224
196
231
226
197
234
228
195
231
225
193
231
225
193
232
226
192
232
226
201
234
225
210
238
226
196
236
227
210
244
229
162
192
163
107
104
83
81
41
32
78
38
32
85
49
43
86
56
51
85
56
61
99
87
78
115
46
48
104
43
40
93
48
43
90
61
47
94
74
62
152
176
155
171
209
196
188
225
216
187
224
210
133
110
79
142
138
90
128
104
76
120
72
66
130
91
73
125
78
68
124
37
52
124
56
65
107
61
61
101
49
51
105
62
57
98
49
49
97
43
46
98
41
44
101
44
49
118
77
63
149
149
133
192
207
180
164
168
140
128
109
84
187
201
180
163
185
152
180
201
178
179
206
179
191
219
203
183
210
180
157
159
142
178
195
161
195
217
198
185
215
189
183
206
184
187
210
189
193
225
204
184
204
176
188
219
196
197
232
216
192
228
212
192
230
210
189
218
200
196
237
227
195
237
229
206
240
227
220
240
216
226
246
227
229
248
227
227
246
224
181
195
155
103
76
60
78
35
27
85
51
48
91
71
64
95
77
69
106
102
87
103
106
95
116
131
121
102
39
41
100
41
41
99
78
74
97
104
97
88
86
81
89
76
67
162
186
182
193
232
224
181
231
224
138
129
85
139
134
88
125
97
75
118
77
64
119
79
67
121
86
72
119
38
51
114
46
53
99
51
52
97
45
47
95
46
48
97
56
49
94
44
45
102
52
50
99
46
49
109
58
49
122
75
66
142
117
91
116
66
57
93
41
37
111
59
66
122
77
65
124
80
77
124
78
71
134
103
83
145
116
94
127
85
70
127
80
69
148
126
113
137
125
98
120
86
72
140
106
90
136
100
82
142
102
90
152
134
109
157
129
111
163
173
138
143
135
95
126
69
47
164
171
149
191
213
181
161
162
124
158
147
113
174
178
144
178
171
136
171
179
138
90
64
39
90
50
46
77
37
29
78
40
35
88
66
58
83
73
60
100
110
111
92
88
88
85
61
51
95
34
38
101
43
41
113
105
98
110
120
108
160
174
159
198
217
188
225
245
224
221
244
227
204
241
227
134
111
78
143
139
91
121
97
75
123
94
71
113
64
61
114
68
60
117
40
52
113
43
51
101
51
52
98
46
46
98
46
47
102
54
50
97
47
48
95
44
45
95
38
42
113
63
52
121
71
58
141
105
80
116
71
56
90
36
34
114
60
62
124
79
61
123
63
58
127
71
56
123
66
52
138
95
77
128
76
58
144
71
58
153
70
64
127
82
70
110
64
57
139
102
78
114
56
45
151
107
80
147
105
77
133
75
68
138
86
63
128
69
51
109
48
37
122
72
56
148
113
75
123
72
52
139
100
68
119
77
61
118
68
50
101
51
41
88
35
28
87
33
28
85
42
30
75
37
31
73
42
36
100
74
56
136
161
144
117
131
123
103
101
86
99
35
38
105
43
43
141
148
138
137
148
122
184
214
179
133
132
93
170
182
149
194
217
188
191
216
183
134
122
82
134
114
77
113
72
63
117
83
61
106
60
56
105
57
52
113
36
49
112
41
50
109
67
61
108
61
54
102
57
52
96
52
47
96
48
47
93
40
42
93
35
40
95
41
39
115
64
52
138
98
67
127
83
63
103
49
39
115
62
51
121
59
47
138
82
62
118
54
45
106
39
36
127
71
55
123
72
53
155
56
52
154
54
52
127
82
66
106
58
47
137
94
70
98
40
31
131
75
56
131
76
57
122
64
51
140
96
62
132
80
56
121
70
48
113
62
42
112
67
39
107
46
36
146
128
77
147
141
84
104
69
42
111
66
43
106
66
39
124
97
53
102
72
41
84
46
36
91
63
43
109
86
60
109
90
63
121
115
74
108
104
67
101
45
42
106
48
46
122
110
73
124
127
87
123
123
96
116
106
86
114
92
70
128
129
100
116
111
78
114
89
66
106
68
58
109
72
64
100
57
50
98
52
51
104
57
52
117
40
51
115
42
51
117
81
67
113
65
58
99
54
51
93
48
46
90
46
47
95
46
45
91
36
39
91
37
38
92
39
41
91
31
33
116
61
50
103
45
40
115
58
47
124
63
51
144
88
66
121
63
48
97
35
33
112
50
39
113
63
44
126
34
38
134
46
46
135
93
69
101
54
43
135
86
64
90
39
28
93
34
31
125
76
50
95
43
34
139
96
64
135
90
57
118
71
44
72
27
19
80
40
28
83
29
22
96
45
33
103
60
42
97
58
36
95
46
37
97
55
37
114
77
47
93
54
39
90
47
36
86
53
38
89
52
40
98
65
44
138
142
73
135
130
75
118
88
58
122
113
66
129
131
75
120
118
78
117
102
69
122
113
80
110
99
68
120
112
85
124
119
75
102
63
55
113
79
61
104
64
54
103
59
55
108
75
63
109
73
59
114
37
47
116
46
52
113
72
61
101
53
52
98
49
49
91
46
45
90
48
46
89
42
43
91
40
42
87
37
37
85
35
38
81
28
30
82
29
29
107
54
47
127
76
57
105
42
35
129
72
55
109
51
42
93
37
31
95
36
30
85
31
25
103
29
33
116
58
46
123
73
62
88
39
34
129
80
64
81
32
25
87
30
27
120
67
41
101
49
36
130
88
61
138
93
57
110
55
41
68
27
20
69
31
22
75
25
20
80
33
25
82
36
27
80
33
25
78
36
29
80
38
29
91
51
38
83
40
32
83
44
32
77
41
31
77
44
34
88
54
41
120
102
58
121
95
60
133
125
69
133
138
75
130
120
72
124
115
74
115
96
65
103
75
54
100
81
54
97
82
59
94
72
51
106
38
48
113
47
52
137
127
84
154
156
97
161
166
109
120
105
70
118
48
52
118
53
54
114
73
61
101
51
52
97
48
48
92
46
45
96
51
49
92
49
45
87
38
42
85
40
39
90
41
42
83
36
38
78
25
27
96
40
40
115
59
47
80
28
27
125
71
53
96
40
34
82
26
23
78
23
21
90
50
38
115
77
66
127
95
71
128
84
51
102
54
37
146
132
97
85
37
27
105
64
54
122
84
60
96
43
30
132
86
58
129
82
52
99
46
37
78
30
22
78
31
23
83
32
26
88
44
28
83
37
28
84
42
31
79
42
31
82
45
36
85
50
37
85
47
36
90
64
46
85
57
43
90
66
47
90
60
43
105
78
46
132
122
70
140
139
74
135
135
80
119
98
65
111
90
63
100
75
58
95
69
53
94
79
51
78
56
43
80
60
42
112
37
50
122
40
53
175
190
114
157
167
98
166
177
110
156
168
101
112
42
48
115
46
53
104
57
54
97
52
50
99
48
49
96
48
48
88
45
43
89
41
43
89
44
43
86
40
40
92
48
45
98
50
47
83
29
30
137
114
79
136
106
70
101
60
45
116
82
55
124
94
61
99
68
45
104
71
44
153
136
77
149
129
82
144
119
73
121
86
53
105
61
45
141
112
73
98
54
33
105
77
69
123
96
72
84
30
23
124
76
48
109
55
40
100
53
39
112
72
51
94
50
37
105
58
40
107
60
40
114
91
62
98
83
51
95
79
50
90
72
52
93
64
43
101
77
58
116
101
68
104
74
60
97
70
53
87
54
39
146
154
75
136
130
75
118
97
61
116
97
64
97
68
48
90
58
47
81
56
43
93
75
57
82
68
44
75
60
42
79
61
44
112
40
53
118
43
55
131
121
82
108
72
61
133
119
78
159
171
110
108
48
50
114
57
55
102
70
58
95
55
51
94
51
49
93
46
45
90
50
45
88
45
45
85
44
41
83
46
41
83
42
40
78
39
35
104
55
41
165
153
93
176
170
92
145
126
77
173
159
88
156
138
76
159
136
76
181
166
94
185
173
90
184
176
96
181
170
89
154
131
74
121
86
52
169
153
86
129
93
55
149
126
68
173
161
93
130
98
56
128
92
52
143
114
75
149
130
79
152
133
79
110
60
50
131
100
76
114
79
52
174
170
96
177
178
99
179
184
98
173
182
94
129
124
68
125
116
70
139
132
91
153
166
123
97
82
48
89
60
41
110
85
50
110
84
54
122
105
64
108
88
60
92
69
48
88
59
47
78
54
39
81
59
46
83
65
45
73
57
37
82
65
46
115
41
52
121
43
56
100
58
54
104
64
57
103
64
55
115
82
66
113
46
50
121
68
64
122
106
79
94
49
48
97
52
48
96
49
49
93
48
45
89
48
46
87
49
41
83
44
41
78
36
34
74
33
33
88
44
32
170
158
94
182
172
98
178
164
93
176
161
84
176
159
84
174
154
80
171
147
80
166
142
73
174
155
84
185
171
87
177
157
87
162
137
72
175
158
81
175
161
81
177
164
81
174
158
89
170
145
83
176
157
84
180
168
100
179
158
92
180
162
100
162
128
90
149
124
80
157
145
112
186
183
136
194
196
147
202
205
157
184
183
126
180
161
117
172
171
131
179
193
156
146
160
128
88
59
39
84
52
37
81
51
33
91
61
42
103
59
44
112
73
55
119
102
69
115
115
73
82
57
40
78
59
41
85
68
44
77
65
40
86
72
49
116
37
46
115
33
48
104
55
50
104
59
54
105
62
54
109
67
60
115
45
50
113
50
53
105
56
53
106
38
46
102
49
48
104
56
51
99
52
48
96
49
47
93
48
42
86
45
43
80
39
35
76
35
33
94
53
38
133
101
60
193
156
96
199
161
102
196
157
91
200
151
97
198
149
91
205
154
101
206
161
103
206
158
102
206
150
101
203
150
94
178
129
76
167
121
77
185
129
97
178
128
83
196
134
102
200
129
101
196
138
107
168
134
110
201
152
110
196
150
113
195
145
111
171
123
95
155
118
92
161
123
86
168
129
90
165
129
85
163
139
93
166
139
90
96
57
43
82
43
32
76
42
31
77
44
32
77
45
37
70
43
32
79
50
36
102
50
42
112
67
51
111
89
58
91
57
42
87
58
42
95
80
56
98
78
56
107
91
57
97
82
55
114
33
43
115
34
48
109
63
56
102
58
55
130
115
78
126
106
75
120
87
64
117
56
56
120
77
60
109
34
45
118
61
56
107
62
57
104
55
49
97
50
48
95
48
43
89
46
42
81
43
37
82
34
33
124
102
57
182
177
93
188
181
91
191
181
91
190
179
85
191
175
85
189
172
81
190
170
79
191
170
81
188
170
77
188
165
77
190
168
80
191
171
82
191
171
86
196
168
98
195
168
94
192
166
94
192
165
91
188
161
90
157
126
81
183
155
82
189
168
88
187
166
84
170
148
79
171
148
83
184
170
89
185
173
93
185
177
95
182
176
102
181
175
96
124
95
55
91
55
37
79
42
32
76
41
33
78
47
36
78
50
35
82
50
38
102
46
41
107
67
50
107
78
50
95
63
46
84
54
41
93
66
51
105
85
57
107
87
64
147
138
108
108
35
45
111
35
48
126
106
74
118
99
71
107
74
61
131
112
77
122
85
62
116
49
56
110
48
50
109
29
45
113
55
51
114
73
60
114
76
58
96
54
50
88
47
42
82
42
38
76
38
36
73
31
31
105
84
48
138
126
65
153
131
69
188
174
86
193
176
89
190
172
86
191
175
83
189
169
78
188
167
78
189
169
77
190
170
82
191
177
78
190
175
79
189
167
77
191
171
80
191
171
76
189
166
81
190
169
75
188
170
81
192
169
77
193
171
81
192
174
79
191
173
78
190
173
76
190
176
81
186
174
76
183
167
73
182
168
70
180
168
78
140
122
61
108
79
50
85
50
35
77
42
32
84
53
38
87
57
41
90
62
45
81
51
36
99
45
40
104
53
46
92
47
40
82
59
42
98
87
73
90
72
59
85
66
50
87
69
56
99
80
61
108
32
43
107
32
47
102
70
57
100
66
55
97
66
54
109
77
61
118
71
58
114
47
52
109
47
50
109
36
47
108
50
49
107
68
57
100
54
50
94
55
48
87
49
43
76
40
37
73
33
32
73
36
32
74
43
32
66
37
28
82
42
31
123
83
48
138
104
60
141
113
62
153
131
68
154
131
75
149
132
77
142
119
73
144
120
90
141
124
85
139
118
80
153
146
106
142
110
64
148
115
74
148
112
73
137
101
51
140
112
66
137
104
58
141
103
52
138
104
47
138
104
51
132
98
48
137
109
61
147
143
109
146
148
124
160
169
134
153
165
132
128
114
69
91
58
36
75
45
28
72
44
31
85
61
43
97
73
50
84
54
39
80
53
38
96
44
40
94
45
40
88
47
41
84
80
78
88
102
99
84
82
73
77
62
48
97
97
89
104
86
76
110
39
47
106
34
47
100
65
54
87
53
46
103
73
63
101
69
59
117
53
53
122
46
54
116
51
55
117
37
48
108
44
48
102
52
49
102
61
53
93
47
45
86
42
41
83
40
37
79
44
43
85
54
52
88
59
55
81
47
41
126
124
111
113
82
64
116
78
58
109
66
43
107
63
48
138
133
119
144
150
133
142
140
122
138
133
121
134
138
112
129
117
109
152
168
154
103
59
42
127
120
114
141
153
140
124
111
105
133
135
127
105
83
69
110
74
61
119
98
82
114
90
73
117
104
98
130
140
137
159
190
188
176
210
204
175
214
206
161
208
206
98
104
92
79
42
28
104
107
103
99
114
103
78
49
33
83
56
39
87
68
58
92
70
58
99
44
39
99
48
40
102
77
77
106
111
101
125
163
157
124
151
144
89
87
81
100
111
108
94
81
70
111
34
45
104
28
43
106
96
91
117
126
124
121
135
128
107
101
87
117
56
55
124
44
53
122
48
56
118
39
50
113
50
50
111
67
55
102
52
48
90
45
42
83
42
39
84
44
40
90
52
50
99
73
64
135
140
125
140
156
143
169
202
191
141
154
140
134
136
126
117
98
92
131
121
111
170
195
181
166
194
184
163
186
179
162
183
174
145
165
147
149
154
152
154
169
155
106
77
76
152
162
156
162
188
180
151
169
166
165
189
180
123
122
114
123
107
105
138
147
138
132
137
131
140
159
156
152
189
190
172
201
199
187
216
206
184
219
208
169
214
210
133
172
165
83
69
66
77
54
53
100
99
85
81
46
34
77
45
29
78
49
33
90
58
42
107
47
45
104
48
45
98
63
59
112
120
113
155
193
191
152
188
175
137
170
161
114
134
123
78
82
69
107
35
45
108
38
48
164
199
198
176
215
209
165
203
193
138
172
164
121
68
58
123
40
53
121
49
57
117
34
47
107
44
48
115
105
101
109
87
75
89
44
41
85
45
41
81
40
36
75
29
31
78
39
36
98
79
72
159
181
174
183
214
202
165
190
176
155
172
164
144
155
143
160
164
154
183
208
191
174
199
192
168
192
184
169
196
189
157
187
175
170
184
179
167
185
170
136
132
129
173
185
177
174
202
196
169
193
189
178
202
192
142
163
157
136
147
146
153
176
170
181
204
192
162
187
177
159
193
194
178
204
200
190
216
204
187
219
207
174
213
206
150
194
187
143
181
177
134
168
162
77
46
35
93
87
78
80
54
46
98
99
96
98
103
94
109
47
45
106
49
47
114
99
104
133
154
150
172
206
196
152
184
167
101
98
87
77
61
54
69
53
42
107
33
44
111
49
54
173
207
207
184
218
211
185
219
212
170
212
207
118
79
64
120
43
55
118
48
57
115
36
47
112
67
71
111
85
88
107
79
71
93
46
42
94
62
69
83
41
40
74
30
31
73
34
31
91
65
60
167
187
179
188
218
208
176
200
191
170
191
184
163
185
173
177
191
182
190
214
198
179
203
197
169
194
191
171
201
194
165
200
190
176
196
189
173
191
181
152
164
161
180
194
188
178
205
198
177
199
196
180
204
195
150
175
174
148
174
172
176
200
193
210
229
205
179
204
192
167
201
201
182
208
202
193
218
204
192
221
209
177
216
207
146
182
178
107
116
116
131
149
150
152
193
192
126
155
157
137
173
176
141
192
198
117
148
145
107
46
40
104
51
45
111
100
96
127
153
143
103
96
83
105
107
96
92
83
76
94
100
95
73
53
45
103
36
48
107
42
50
174
206
208
184
218
213
183
218
212
182
220
217
117
85
69
123
53
69
121
72
73
116
36
49
129
124
117
139
162
144
130
114
80
124
94
64
104
73
71
88
43
46
79
56
67
75
27
31
85
48
55
162
180
179
191
219
211
183
205
199
173
195
191
166
190
182
181
200
193
192
216
201
182
205
198
171
196
192
170
202
196
166
203
194
179
200
192
179
200
188
163
184
180
183
199
193
181
207
199
177
199
195
182
203
197
154
183
184
153
182
179
209
225
201
185
209
187
186
208
192
166
202
202
184
207
201
195
219
204
193
221
206
178
216
205
160
202
200
156
198
198
174
210
206
179
216
210
167
208
206
167
206
205
164
211
213
145
192
188
107
44
40
102
45
39
95
53
47
97
99
97
90
72
68
87
66
57
83
56
48
79
63
52
77
58
47
101
33
44
104
36
45
175
207
209
184
218
213
185
217
213
182
220
217
119
90
76
123
49
70
120
71
73
115
41
51
131
104
69
137
124
73
136
117
76
123
90
62
93
42
40
103
73
74
142
179
186
135
167
172
149
167
163
183
208
206
191
220
214
181
208
203
173
198
195
167
192
188
181
200
194
192
217
202
181
204
197
171
195
191
168
200
195
167
205
196
180
201
192
180
201
191
163
188
183
182
201
193
181
207
199
178
202
198
182
205
198
156
189
190
178
197
189
211
226
198
153
183
168
185
202
184
167
197
197
182
206
200
194
217
202
190
219
204
178
215
203
159
203
201
156
198
197
178
209
204
182
215
206
169
207
204
166
206
204
168
212
212
145
188
183
103
45
40
102
45
42
119
122
127
142
192
186
111
125
119
100
111
103
101
119
123
84
69
59
78
52
41
99
30
42
105
34
43
171
206
207
182
218
213
185
217
215
180
219
217
112
90
71
118
39
52
115
40
50
113
35
47
123
87
66
106
74
70
104
67
70
104
55
60
94
59
63
94
45
43
133
150
150
147
171
155
134
123
112
175
195
184
181
205
189
173
193
175
152
163
155
168
195
196
182
200
194
191
215
202
179
203
196
169
193
191
168
201
196
166
202
194
180
200
191
178
199
188
165
187
183
184
201
193
180
206
197
178
201
197
182
205
198
158
191
192
212
224
203
201
223
199
147
168
162
191
208
188
152
184
181
180
205
200
194
215
201
188
216
202
179
213
201
160
202
199
158
198
195
176
207
201
180
213
205
169
208
203
165
207
205
171
212
212
145
184
178
101
48
41
101
48
41
117
121
123
113
143
133
110
132
124
93
100
101
125
165
164
82
72
65
77
43
35
95
26
36
100
31
39
171
208
209
181
217
213
185
217
213
178
218
216
110
78
62
110
33
44
108
32
43
109
30
40
151
170
175
141
186
193
122
141
147
119
102
115
122
140
150
108
58
49
125
91
65
104
63
49
102
47
45
136
102
81
150
135
107
140
123
116
155
172
175
170
200
201
183
204
198
190
215
203
178
204
197
169
195
193
168
199
195
164
200
193
181
200
190
179
198
189
164
187
179
183
196
190
179
203
195
178
200
195
180
204
196
172
197
192
223
237
209
155
180
169
172
184
173
203
222
202
140
169
167
179
205
200
192
213
200
188
215
201
176
212
201
160
200
198
158
195
192
176
205
201
179
213
206
144
169
164
154
191
182
158
197
187
138
179
170
94
44
37
95
40
37
119
124
130
128
170
165
144
186
187
142
193
198
133
180
181
87
79
78
85
52
48
98
26
37
102
31
38
169
207
209
180
217
213
182
215
211
179
218
215
112
78
64
112
33
44
108
26
39
104
27
38
160
189
194
145
189
194
124
130
135
123
116
125
132
163
166
103
64
60
91
36
36
89
30
33
88
29
31
104
48
43
121
102
105
168
195
196
173
206
207
159
183
170
183
201
189
188
214
204
176
203
196
167
194
193
166
199
195
163
199
193
178
199
191
181
199
190
165
190
183
185
197
192
177
201
194
176
199
195
177
203
196
200
216
199
190
206
183
167
176
170
215
226
204
216
234
209
154
177
169
179
202
196
190
212
200
187
215
201
174
210
200
162
200
197
160
196
194
174
204
200
179
212
204
166
202
199
151
186
189
147
181
180
122
145
142
96
42
36
93
41
37
131
141
146
150
195
194
163
211
207
152
204
201
135
180
178
119
157
165
117
123
130
106
25
36
106
32
39
170
207
208
180
217
212
184
216
212
179
218
216
116
80
65
115
36
47
112
30
43
108
28
42
163
194
198
151
204
212
124
129
133
129
132
143
124
133
136
110
97
94
89
40
39
87
35
37
88
33
35
94
37
38
155
165
149
182
221
219
169
196
184
138
112
84
154
144
122
191
216
208
174
203
198
168
195
193
168
199
193
165
198
192
180
199
190
181
200
189
166
191
185
180
197
193
175
199
193
173
198
195
176
200
195
191
203
180
208
218
191
218
230
202
223
239
214
220
237
209
189
207
185
184
200
189
188
210
199
185
214
201
174
211
202
161
203
198
161
195
194
174
204
197
176
210
201
166
203
199
162
202
201
165
208
207
140
175
172
96
40
32
96
38
34
131
142
145
163
215
212
168
215
210
152
202
199
144
188
186
143
191
198
124
165
170
109
23
36
107
30
41
169
207
209
180
216
212
181
216
213
176
217
217
120
84
70
117
37
48
115
35
47
112
27
43
160
196
200
146
201
209
121
126
129
128
108
106
132
155
147
102
47
45
91
40
37
92
42
41
93
41
39
95
37
41
113
86
84
155
174
155
125
99
71
122
75
50
132
89
57
148
143
117
166
191
187
163
193
194
164
196
192
163
196
191
179
195
188
180
197
187
163
187
185
174
192
190
173
196
193
170
196
196
171
198
196
178
194
168
189
199
166
193
167
139
186
201
171
184
190
156
181
185
157
165
173
153
186
210
202
184
214
200
172
210
201
161
203
196
159
196
194
172
204
197
178
209
200
166
201
197
163
202
200
163
208
207
138
172
170
93
40
33
95
40
35
124
139
143
160
214
211
164
213
208
157
208
206
145
195
195
140
198
205
117
156
158
114
27
39
108
34
46
167
209
211
177
214
211
175
213
212
168
214
216
116
89
74
116
37
50
115
40
51
109
31
45
154
192
198
143
203
214
125
149
155
113
34
40
112
62
52
94
41
41
86
37
32
90
39
40
94
38
40
95
43
49
90
36
38
92
33
32
109
75
66
112
58
52
113
62
44
141
127
117
169
193
184
171
198
198
168
198
194
166
197
192
180
196
189
180
196
187
169
188
186
174
192
190
172
194
191
172
194
194
168
193
196
116
108
106
113
82
80
115
71
52
113
61
50
107
54
41
106
58
41
149
151
145
184
209
201
181
211
198
169
207
200
159
202
195
158
197
194
169
202
195
174
207
200
167
201
197
162
201
200
163
207
206
132
168
166
94
40
33
97
42
36
125
142
145
157
214
212
159
210
207
154
207
206
148
201
203
139
197
204
132
189
199
112
24
38
111
38
51
166
208
211
173
212
212
172
212
211
168
214
217
115
94
82
116
37
51
116
39
51
112
32
45
156
198
206
146
203
214
127
152
158
123
89
90
114
95
91
95
48
44
86
48
58
90
42
47
91
37
37
87
33
35
85
28
29
85
26
29
98
50
35
103
52
48
105
49
48
131
120
123
151
148
148
176
201
199
170
201
196
167
197
192
183
198
190
185
199
188
173
191
188
176
191
189
174
195
192
175
194
193
172
194
197
161
186
182
161
190
176
150
168
153
158
189
178
145
168
156
121
136
127
134
142
139
181
207
200
179
210
199
167
206
201
155
199
196
156
196
195
167
202
195
170
205
199
164
201
197
159
201
200
158
206
205
130
165
162
96
42
35
94
43
36
124
138
141
154
212
212
159
211
208
152
206
205
149
203
205
138
199
204
131
196
206
116
25
40
110
38
54
168
209
211
175
215
213
173
215
214
168
216
218
114
97
86
114
34
48
113
34
46
110
31
45
156
201
209
146
204
215
126
148
155
130
129
142
140
200
208
124
141
136
147
189
188
135
162
162
87
37
37
91
39
39
87
32
32
80
25
26
91
51
48
103
55
36
122
103
94
169
186
178
171
198
193
166
195
196
164
197
195
169
197
193
182
197
190
184
197
187
173
188
186
176
192
190
174
192
191
172
193
193
169
194
196
146
165
166
137
136
128
137
139
127
155
174
158
154
177
155
110
108
110
160
182
177
181
208
198
176
209
199
165
204
198
159
201
196
156
196
195
162
200
194
164
202
198
162
201
197
161
201
201
160
207
207
127
161
160
95
37
33
92
45
37
123
139
144
154
213
213
151
209
207
147
203
205
143
200
204
137
198
203
125
195
205
111
31
43
108
38
53
163
206
211
175
216
214
167
214
213
164
215
217
115
100
93
114
37
49
113
34
45
111
36
47
153
202
211
147
206
217
127
145
142
130
113
110
133
150
117
120
114
97
110
72
67
122
126
116
93
46
40
89
37
36
81
27
27
86
26
26
87
32
31
85
35
33
107
61
50
92
37
33
122
103
104
169
199
198
167
198
196
169
199
194
183
199
190
184
199
190
171
188
188
172
191
189
174
193
194
172
193
191
171
194
194
154
179
181
131
131
134
122
111
112
128
125
121
145
162
142
118
124
130
172
199
192
182
212
201
176
210
200
165
204
198
156
198
196
152
196
196
155
199
195
154
202
200
155
199
198
155
200
201
153
205
207
125
159
157
96
39
36
95
44
40
116
135
141
144
211
213
142
208
209
138
201
206
134
199
205
128
194
203
124
194
205
110
36
45
106
39
51
163
206
211
170
215
215
162
213
214
163
216
218
114
104
95
111
36
49
109
34
44
110
36
49
145
199
203
144
193
183
125
133
124
125
77
56
126
107
63
105
59
50
105
74
76
99
64
59
90
34
34
88
30
31
84
28
31
82
26
28
81
28
28
84
38
34
96
49
51
121
91
89
163
183
185
170
200
199
166
199
197
168
200
195
183
202
194
183
200
192
172
192
191
170
192
192
173
195
197
170
193
193
168
193
195
162
190
191
135
151
156
120
120
123
121
116
118
134
147
138
137
156
159
175
205
198
180
212
203
175
209
200
164
202
198
159
198
195
152
197
196
150
199
197
154
202
201
154
199
199
154
200
201
151
207
208
129
160
156
100
44
39
99
50
43
110
132
140
135
209
213
135
205
209
133
199
205
130
199
205
126
196
203
119
195
205
108
32
43
104
37
49
161
206
212
162
211
214
160
213
216
160
216
221
116
110
101
108
35
44
107
30
42
107
44
58
142
188
181
125
122
97
122
96
84
116
52
50
113
90
74
118
124
122
123
126
113
111
95
77
89
34
36
85
34
31
82
29
31
81
24
28
82
32
30
87
37
34
111
79
80
131
129
127
164
183
187
171
199
199
167
198
199
166
199
196
183
202
198
181
202
196
174
195
196
169
194
196
173
194
196
171
196
198
168
195
198
162
191
193
145
168
174
118
127
135
117
114
119
141
152
148
157
180
179
180
209
201
181
216
208
175
210
202
168
202
199
160
196
194
156
198
197
156
199
199
158
203
200
159
201
200
151
200
202
149
205
209
123
157
157
103
47
40
103
53
45
112
132
139
131
208
212
131
204
209
129
200
206
125
196
204
123
195
204
123
194
205
109
33
43
108
34
51
160
208
216
158
213
217
155
213
218
156
214
214
112
103
89
103
33
42
107
34
44
112
53
72
145
207
217
137
195
203
118
119
115
118
76
79
126
162
175
138
188
199
134
156
146
124
98
62
92
41
39
94
64
57
93
49
44
84
33
30
84
35
29
82
33
27
103
67
70
144
149
155
176
202
204
171
200
201
168
199
202
169
201
200
181
204
202
180
203
201
177
201
197
171
198
203
171
195
202
175
200
196
170
197
202
167
195
198
162
190
193
128
150
160
117
114
123
148
166
162
165
194
192
179
214
208
177
215
200
172
209
205
164
201
200
159
196
197
156
196
197
157
200
200
153
200
200
152
198
200
151
200
202
146
205
209
122
154
153
102
45
40
101
51
42
116
128
135
130
208
213
127
204
210
123
198
206
122
195
205
121
194
205
131
194
207
107
28
40
104
34
48
157
208
213
162
214
218
154
212
218
142
182
161
106
58
52
106
35
45
107
33
47
113
65
84
145
210
218
141
203
213
119
121
112
116
94
108
140
199
213
147
201
212
152
191
187
131
114
77
102
58
52
125
113
108
110
90
89
119
77
50
120
85
49
124
101
58
148
158
152
175
199
202
173
200
203
172
199
201
170
199
203
168
203
204
174
204
208
176
204
201
134
120
84
155
158
137
161
175
153
139
113
82
165
186
191
168
198
205
165
195
203
149
180
183
119
131
145
152
177
176
179
208
206
178
214
201
141
160
127
165
195
180
163
198
200
163
197
198
155
195
195
154
198
200
149
200
201
149
199
202
145
198
202
138
204
210
121
152
150
105
46
42
104
51
41
108
111
116
130
208
215
125
203
211
123
199
210
120
195
207
118
194
208
132
195
209
102
23
37
103
30
44
138
162
138
148
186
171
155
201
186
123
118
81
106
57
52
106
38
47
105
31
44
110
51
57
149
198
188
146
206
209
124
145
145
123
109
113
146
200
194
152
202
202
162
197
189
140
147
136
121
127
123
157
176
171
148
168
160
116
76
64
105
48
43
118
92
72
141
145
144
177
201
201
175
201
203
169
197
205
170
200
207
169
202
208
169
191
189
165
185
175
141
111
62
122
71
39
144
110
55
129
104
91
162
181
179
160
180
161
156
173
158
144
146
129
134
154
159
153
160
147
183
216
213
175
207
191
143
153
117
137
148
142
164
194
194
159
195
199
156
194
197
150
195
200
152
200
202
150
200
206
142
197
204
136
201
210
121
147
147
108
48
41
106
53
43
110
92
97
129
207
215
124
202
212
122
199
210
120
196
211
119
196
213
136
190
200
