P3
# Tre
64 64
255
124
109
79
123
114
86
135
124
97
134
114
89
136
105
89
122
101
81
105
70
68
98
63
63
92
42
56
90
40
57
109
27
68
105
23
65
108
109
119
93
68
85
109
77
99
132
149
161
114
81
104
129
123
134
131
169
166
141
171
183
153
191
203
141
187
199
138
186
198
138
185
199
150
183
201
152
184
201
152
183
200
151
183
200
154
183
200
154
183
200
143
184
198
146
184
199
144
183
199
137
184
196
137
182
195
137
182
195
138
182
197
138
184
199
132
185
197
133
184
198
140
185
200
133
184
198
149
184
202
152
185
203
137
187
201
137
164
172
142
132
122
122
56
77
129
87
90
131
73
80
126
54
68
129
67
72
121
73
80
114
71
79
95
45
57
82
48
54
85
27
49
98
92
108
128
181
193
124
164
176
123
163
173
132
192
199
134
198
204
132
187
187
139
133
89
133
126
79
121
94
78
131
115
77
110
66
59
109
70
65
97
39
44
114
88
85
105
78
82
97
50
49
91
33
38
93
49
57
87
56
58
84
35
38
86
40
50
93
74
86
113
132
143
101
111
117
129
163
158
153
210
212
151
205
209
148
200
207
148
199
207
146
198
206
144
198
206
143
196
206
144
196
205
145
197
206
146
196
205
147
197
206
146
198
206
147
197
206
145
196
205
148
198
206
147
196
205
145
194
205
143
195
205
142
196
206
142
197
206
141
197
207
139
198
207
140
198
207
140
198
207
140
198
207
140
202
210
133
179
178
119
117
110
119
123
113
109
52
39
127
105
88
121
106
88
113
94
87
102
82
91
99
129
134
113
164
162
108
156
152
92
32
37
102
107
112
122
200
204
128
210
215
125
205
207
98
145
139
86
94
98
90
112
116
111
86
67
128
113
83
136
120
85
121
89
67
110
69
59
104
55
58
107
35
44
124
132
131
116
133
137
100
63
64
94
34
39
87
28
34
94
69
80
95
92
99
85
53
55
113
153
151
106
128
126
92
74
76
100
92
98
154
209
207
153
205
209
151
201
208
149
199
207
147
198
207
146
198
206
147
197
205
147
197
205
149
197
205
148
198
206
148
198
206
148
198
206
147
198
206
147
195
205
149
198
206
148
197
206
146
195
205
145
195
205
144
196
205
143
196
206
143
197
206
143
198
207
142
198
207
142
198
207
140
198
200
136
185
167
135
180
172
120
144
145
119
103
84
121
124
119
116
75
63
118
104
105
117
166
175
121
160
147
131
202
200
130
201
203
117
175
173
94
36
37
107
125
134
123
193
175
116
171
166
107
160
154
118
158
158
101
123
124
106
134
135
119
99
76
136
125
85
124
106
76
119
77
62
103
54
49
101
43
49
109
29
44
118
91
94
134
179
182
113
104
110
109
34
45
96
60
72
103
91
107
111
133
136
109
125
124
105
127
123
98
94
89
129
159
156
149
204
202
146
196
195
154
205
209
152
201
207
152
200
207
151
199
207
148
199
207
150
198
206
150
198
206
149
197
206
151
198
206
149
198
206
149
198
206
149
198
206
150
197
206
149
199
206
150
199
206
148
198
206
147
197
205
145
197
206
145
197
207
144
198
207
143
198
207
145
199
207
144
199
207
138
184
170
117
87
57
123
139
133
138
192
188
128
160
142
120
170
176
124
131
114
116
125
132
138
207
198
112
124
120
120
174
168
129
179
166
121
163
137
102
48
44
99
85
84
101
115
94
94
91
88
142
194
184
130
184
175
94
80
77
97
78
73
117
117
100
109
70
58
117
92
83
97
49
49
106
66
67
110
69
70
106
32
44
103
50
56
127
139
134
131
157
147
107
39
44
103
87
98
105
94
91
118
143
130
109
119
114
94
92
101
87
69
88
114
138
129
147
193
196
157
208
210
154
203
208
153
202
207
152
200
207
151
199
207
150
199
207
150
198
207
150
199
207
149
198
206
151
197
206
151
198
206
148
198
206
150
197
206
149
196
205
149
198
206
148
196
205
148
197
206
148
196
205
148
197
206
145
197
206
145
197
206
145
197
206
145
198
206
144
198
207
144
194
198
135
177
180
137
193
198
131
171
162
126
151
148
135
196
198
131
183
179
130
186
171
121
142
123
119
141
142
125
152
135
127
167
130
121
124
83
105
60
46
104
72
55
98
72
47
90
51
42
99
106
99
99
99
85
95
73
55
91
69
57
126
124
98
129
112
82
125
110
97
128
108
75
126
103
74
101
49
53
105
35
44
106
52
57
110
54
56
107
53
55
100
33
39
90
39
47
85
27
34
90
38
40
88
38
47
117
126
128
153
206
189
141
186
186
157
211
211
156
206
209
154
201
207
154
201
207
153
200
207
151
198
206
151
198
206
150
199
207
149
197
206
150
198
206
152
199
206
153
198
205
151
198
206
150
197
206
149
197
205
150
198
206
148
197
206
148
197
206
148
197
205
149
197
206
148
197
206
147
198
206
145
197
207
145
195
205
144
196
205
144
196
206
145
197
206
142
198
206
145
199
203
142
198
203
140
198
199
120
127
96
129
148
129
125
169
150
124
132
108
120
111
92
130
123
78
128
121
66
122
106
61
120
107
67
109
84
54
93
60
44
112
95
59
103
73
49
112
91
56
92
56
43
120
111
76
128
111
80
127
104
76
142
128
85
120
86
64
121
88
64
103
50
47
103
48
51
103
44
52
101
33
46
96
29
37
85
23
34
79
20
27
77
19
27
77
21
25
81
44
45
90
75
71
137
167
157
158
214
212
154
207
209
153
202
207
153
202
207
154
201
207
151
199
206
150
199
207
149
199
207
150
198
206
150
199
206
153
199
206
152
197
205
152
199
206
150
198
205
150
197
206
151
197
206
150
198
206
149
199
206
149
198
206
149
199
206
148
199
206
146
199
207
146
198
206
145
196
205
145
195
205
146
194
204
147
195
204
146
197
206
147
199
207
146
201
208
143
202
201
128
168
163
117
116
104
121
133
100
119
100
81
114
86
74
115
86
74
130
121
72
115
89
60
112
97
86
113
90
59
93
56
41
97
64
41
94
60
43
94
56
45
105
86
65
118
96
65
123
100
74
130
111
78
112
73
59
104
49
46
103
59
63
112
65
56
107
54
52
108
52
51
104
42
48
96
34
40
92
36
39
87
30
34
84
27
39
75
21
32
70
17
27
73
24
36
122
141
143
161
214
212
157
206
208
155
202
206
153
200
205
151
199
205
150
200
206
151
200
207
151
198
206
150
199
207
150
200
207
151
199
206
151
198
206
151
198
206
151
199
206
150
198
206
151
198
206
150
198
206
150
197
205
149
198
206
151
199
206
148
199
206
147
199
207
144
197
206
143
195
203
146
195
204
147
195
204
147
195
204
147
196
205
149
198
206
147
199
207
146
204
211
151
209
214
138
200
201
142
199
187
122
138
108
114
112
94
121
144
128
109
94
84
113
81
54
112
101
99
107
91
72
107
120
123
93
79
84
90
68
72
101
94
88
106
96
77
106
61
51
115
78
65
105
65
54
94
41
44
117
84
65
124
101
76
124
99
71
106
52
53
107
53
60
105
57
63
95
36
41
86
33
39
86
33
40
111
107
98
137
182
174
107
141
142
78
65
72
144
180
181
160
212
211
159
205
208
160
202
205
188
215
208
195
220
209
171
208
207
150
196
205
150
199
206
149
200
207
149
200
207
149
199
207
150
198
206
152
199
206
150
198
206
151
198
206
151
199
206
152
199
206
151
199
206
151
198
206
150
198
206
149
198
206
147
199
207
170
208
207
195
219
208
174
210
207
149
195
204
163
203
206
153
199
205
146
198
207
146
201
208
147
206
210
142
186
163
134
164
138
125
133
110
110
85
67
110
100
77
107
97
96
114
113
105
112
82
52
107
99
96
104
114
95
124
182
190
120
190
198
114
172
164
91
88
86
95
84
80
117
122
113
117
84
69
106
71
73
97
54
63
127
99
69
115
81
62
105
56
50
107
51
54
107
48
54
103
50
54
101
43
46
91
37
42
94
42
58
92
63
78
128
140
130
165
221
217
159
215
215
164
218
217
160
211
212
161
205
208
205
225
210
219
232
210
219
233
211
219
233
212
203
224
209
158
201
206
150
197
205
151
199
206
151
198
206
151
199
206
150
198
205
150
199
205
151
199
206
153
200
206
152
200
206
151
200
206
151
199
205
150
199
206
149
199
206
147
198
206
178
209
206
211
228
210
220
234
212
213
230
211
221
234
212
219
234
212
194
222
212
160
209
212
143
183
172
114
87
65
116
83
56
112
74
49
112
78
53
98
66
70
102
74
60
114
100
82
112
85
51
101
92
86
103
112
112
116
171
173
141
210
213
137
213
211
102
135
125
95
112
117
110
126
116
114
75
60
113
110
116
106
86
92
122
105
86
116
81
62
105
51
50
112
76
79
105
48
51
103
41
51
98
41
45
103
59
63
110
81
78
113
119
128
122
137
138
157
201
186
160
212
193
162
204
187
174
218
216
185
217
210
218
232
210
217
231
211
214
231
212
210
229
211
212
230
211
181
214
208
151
197
205
152
199
206
154
199
206
170
205
206
197
221
210
188
217
209
169
207
207
154
200
206
154
201
207
154
200
206
153
200
206
155
201
206
157
202
207
153
199
205
212
229
210
218
233
211
222
236
214
222
235
214
223
236
214
223
236
214
204
217
188
212
228
200
165
177
144
125
89
52
121
82
48
115
77
51
104
73
67
100
72
70
109
133
133
107
65
49
108
67
44
97
53
42
97
71
67
110
141
138
114
153
138
105
127
106
124
182
164
127
200
201
105
114
108
126
102
70
96
63
64
120
126
127
137
139
100
108
68
57
104
52
52
114
65
60
107
46
54
105
49
56
96
33
42
93
41
47
105
73
79
115
102
104
123
146
138
105
120
124
87
62
67
128
111
106
180
190
160
181
186
164
200
207
186
218
233
212
210
229
212
201
224
210
206
227
210
211
230
210
186
215
208
156
200
205
163
204
206
193
215
207
213
230
211
215
231
211
216
232
211
194
220
210
154
199
205
155
200
206
161
201
205
157
200
205
178
210
207
196
221
209
212
230
211
218
233
211
211
226
193
211
223
201
203
217
192
219
232
206
160
168
132
136
116
69
128
100
47
118
71
46
124
97
61
111
79
61
104
100
100
103
93
92
102
119
115
92
39
40
101
33
31
94
46
38
84
51
44
81
50
43
84
57
48
83
67
62
105
130
108
128
189
194
113
93
73
97
56
49
104
71
60
121
90
63
118
87
64
106
62
54
102
44
45
108
49
54
114
58
62
107
48
51
97
34
43
89
33
41
91
41
45
94
49
60
83
29
37
132
162
148
121
126
120
114
101
94
155
158
141
182
192
169
182
189
168
217
231
212
203
226
211
191
216
208
189
213
206
204
224
209
211
229
211
197
223
210
164
203
205
175
205
205
204
224
209
211
230
211
213
231
212
207
227
211
173
209
207
166
204
206
165
205
207
176
210
207
198
221
209
211
229
211
213
230
211
220
235
213
162
168
126
176
180
160
168
180
139
146
137
99
150
127
69
141
126
67
141
123
62
116
77
59
140
115
75
129
116
75
105
98
94
102
76
82
122
115
107
99
86
80
100
33
33
95
77
82
86
76
68
76
43
42
78
55
49
74
41
30
80
50
38
119
162
152
118
81
62
122
104
74
104
81
69
100
55
48
100
53
49
96
42
45
101
25
40
107
36
44
107
46
51
107
43
49
99
35
45
87
31
38
86
32
38
93
41
50
85
37
51
82
24
28
99
61
60
123
105
96
106
96
80
143
133
129
204
219
203
210
230
212
201
224
210
199
223
210
200
222
209
205
226
210
212
230
211
211
230
211
204
226
211
195
219
209
199
221
210
204
227
211
207
228
211
204
226
210
209
228
211
208
227
210
210
229
212
210
228
211
218
233
212
217
232
211
216
231
210
217
231
206
167
180
148
163
167
142
140
120
76
143
128
77
119
90
57
127
91
51
122
88
46
107
60
40
114
67
41
107
72
57
110
95
91
122
150
152
155
171
155
120
122
105
97
34
32
97
74
69
90
71
57
84
56
55
76
48
43
71
36
26
74
43
30
85
52
35
128
101
75
117
94
68
109
77
62
94
41
46
93
33
41
98
43
44
109
43
46
104
47
60
107
53
64
111
49
50
95
34
42
90
39
41
85
26
34
89
50
57
95
91
92
76
21
37
78
19
28
83
32
37
87
56
68
173
177
169
213
231
212
209
229
212
202
225
210
198
221
209
205
225
209
208
227
210
207
227
210
206
226
210
209
229
211
210
229
212
207
228
212
206
228
212
207
228
211
203
224
210
210
228
211
215
231
211
218
232
211
218
233
212
218
233
212
217
233
212
208
227
207
154
151
134
156
163
134
129
110
93
132
105
65
127
92
53
142
129
105
143
149
130
138
143
120
109
83
71
96
49
38
102
66
66
103
72
63
113
117
117
106
84
81
99
62
49
99
37
36
98
66
63
83
61
45
90
60
60
77
55
54
78
52
40
70
41
28
82
46
31
111
69
59
104
65
57
124
107
78
100
65
55
96
51
55
117
78
59
118
83
62
128
149
146
116
99
90
103
43
48
96
38
43
89
35
39
86
26
35
84
29
40
97
70
80
120
144
144
91
82
81
86
30
42
176
190
176
210
229
213
213
231
213
208
229
212
198
221
210
195
218
208
196
217
207
194
215
206
195
217
206
198
219
207
200
221
208
207
227
211
209
229
212
209
229
212
208
229
212
210
229
212
212
231
212
212
230
211
215
232
212
216
232
212
215
231
211
215
232
212
214
232
212
196
215
199
188
204
183
142
153
135
110
59
33
123
93
62
132
100
61
128
115
105
132
138
127
120
118
102
112
107
105
142
165
164
109
109
107
119
121
123
126
132
114
105
66
51
104
43
44
105
77
69
95
79
51
86
72
69
81
62
55
84
62
41
75
54
43
83
48
38
120
101
73
127
110
79
124
101
82
125
123
97
130
109
78
122
87
62
128
109
75
105
48
51
106
51
54
97
39
41
90
31
37
82
30
34
79
24
32
80
19
29
83
38
58
76
25
39
72
18
28
82
34
45
106
86
83
186
201
184
213
232
213
204
227
212
199
224
211
199
222
211
200
223
210
191
215
206
187
211
205
188
211
204
193
214
205
201
221
208
208
227
211
210
230
212
213
231
212
214
231
212
213
231
211
213
231
212
212
231
212
215
232
212
216
233
212
216
232
212
216
233
213
216
232
212
198
217
198
198
216
198
110
92
69
122
110
100
105
81
76
166
182
175
133
148
133
119
115
115
151
182
187
133
164
163
151
181
181
146
185
173
137
145
116
124
110
68
127
119
69
102
76
59
105
88
72
90
66
48
101
102
89
93
79
57
84
63
45
86
66
54
115
91
71
135
121
88
117
84
69
121
115
104
130
111
92
127
91
66
129
95
71
117
68
63
131
115
104
111
85
76
92
27
36
91
43
56
88
45
58
125
129
125
156
182
183
177
198
186
121
140
137
92
71
76
70
28
31
105
96
90
169
176
165
198
225
212
196
222
211
204
226
211
202
224
211
199
222
209
191
216
206
188
212
205
188
210
204
193
213
205
200
220
208
208
228
211
213
231
212
213
231
212
213
231
212
212
230
211
213
231
212
212
231
212
213
231
213
213
231
212
214
231
212
212
230
212
214
231
212
214
231
211
150
170
155
128
130
124
116
110
100
119
105
103
127
127
120
127
139
136
151
185
176
119
116
109
118
97
84
128
113
67
137
131
79
122
99
61
123
101
65
110
87
75
103
125
131
94
70
60
97
78
54
89
76
55
92
93
85
93
102
94
123
107
76
123
95
74
130
111
84
130
129
102
107
65
56
115
72
59
102
52
49
101
48
45
120
90
82
113
98
79
91
31
38
131
132
123
159
177
161
165
203
187
149
154
139
155
164
152
175
218
212
125
151
152
117
125
126
150
168
157
161
170
157
210
223
204
211
229
212
209
229
213
198
222
210
201
224
210
200
223
210
197
220
208
195
217
207
195
216
207
194
215
207
197
219
208
204
226
210
207
228
210
205
226
211
203
224
209
206
225
210
207
227
211
209
229
211
211
230
212
209
229
212
202
223
210
199
223
211
202
226
213
201
228
213
169
197
184
151
164
157
161
195
181
107
97
91
124
136
128
120
124
113
99
68
56
111
86
74
127
100
60
115
79
52
131
118
65
111
73
55
116
95
81
122
141
126
130
132
121
132
154
137
108
141
134
81
98
89
97
99
94
120
99
75
121
93
72
109
66
58
115
80
64
106
56
51
90
27
36
87
27
36
104
59
55
94
30
38
100
43
44
89
32
39
110
86
76
80
23
29
78
26
31
80
20
30
107
102
108
155
194
185
166
206
199
199
220
208
207
219
201
204
220
200
206
219
203
214
231
213
212
230
213
207
226
212
210
229
211
211
230
212
213
230
212
212
230
211
209
227
211
203
224
210
201
223
210
202
224
210
207
228
212
206
227
212
194
219
209
183
212
208
186
214
209
190
217
209
187
215
209
184
214
209
175
210
209
172
211
210
173
213
211
179
218
213
192
226
214
173
206
195
106
92
80
102
78
74
147
172
160
168
192
176
126
122
102
145
159
144
139
144
114
129
107
64
114
82
55
107
57
50
113
75
58
112
99
90
101
70
61
114
111
100
135
172
173
153
215
214
132
187
187
113
73
61
118
82
66
97
45
52
107
64
54
108
61
55
104
57
51
92
31
39
91
31
40
92
36
42
98
34
42
98
45
46
81
20
28
77
18
28
73
14
22
74
23
27
75
18
25
86
39
46
167
178
168
220
232
214
220
232
215
213
230
213
209
229
213
211
230
213
213
231
213
214
231
212
216
232
212
215
232
213
212
230
211
214
231
212
210
229
212
198
221
209
201
223
209
204
225
210
199
220
208
200
220
208
206
226
210
185
217
210
167
208
209
167
209
210
167
210
210
167
209
210
169
210
210
174
213
211
169
212
211
169
214
212
163
214
205
134
181
179
98
93
94
102
81
80
192
206
189
204
228
209
155
167
146
153
175
159
139
152
136
129
118
87
113
80
53
105
63
51
107
61
55
116
111
97
111
103
91
103
92
83
143
166
150
164
210
189
160
225
216
104
61
57
106
41
49
140
154
149
109
86
78
95
47
46
106
66
66
98
21
37
108
74
73
116
99
95
101
40
45
106
48
48
86
30
36
81
24
32
76
18
27
77
23
26
76
18
26
87
44
48
126
108
100
193
200
183
227
240
219
217
231
212
207
228
212
206
227
212
206
225
212
211
228
212
212
230
212
211
230
212
204
224
210
207
225
210
202
224
210
189
213
205
187
210
204
192
214
205
188
210
204
185
207
203
189
211
204
191
216
208
167
208
209
165
209
209
165
209
210
170
211
210
174
212
210
176
214
211
174
214
211
169
215
212
162
214
208
110
136
130
104
107
102
117
127
123
178
205
189
172
198
180
139
148
129
139
153
145
145
166
147
135
135
96
132
116
64
125
120
68
101
58
48
107
72
56
106
81
61
102
77
60
101
78
53
105
87
53
112
127
103
110
85
71
103
25
42
156
193
193
154
192
178
106
90
92
121
131
127
96
21
37
134
136
133
122
125
103
100
37
45
99
19
33
90
53
58
82
27
32
77
20
27
73
16
21
75
17
26
74
16
24
77
24
35
139
134
117
151
152
125
206
218
201
215
232
214
211
230
213
202
223
210
199
221
209
199
222
209
202
223
209
200
221
209
196
216
206
193
214
205
190
212
205
188
212
205
184
209
204
182
206
204
180
204
203
181
206
204
189
213
207
177
211
209
166
209
209
165
209
209
165
210
210
165
210
210
166
211
210
165
212
211
165
214
213
164
217
214
132
179
167
73
35
37
94
89
83
100
93
80
102
81
73
123
124
111
154
173
156
129
126
87
123
95
57
129
108
66
116
95
60
121
116
80
124
121
72
116
103
62
101
61
49
120
111
62
122
121
68
109
106
64
101
57
52
105
29
44
175
209
193
143
170
146
114
99
87
103
74
76
101
28
42
155
167
162
148
189
175
104
60
57
98
18
35
103
99
107
94
77
79
79
47
53
82
41
50
78
30
35
68
17
20
72
30
35
61
8
13
84
76
87
198
223
211
204
228
213
202
225
212
199
222
210
197
222
210
196
221
211
193
219
210
186
216
210
186
214
208
187
214
208
189
216
209
182
214
210
177
212
209
176
213
210
174
212
210
179
214
209
183
215
210
202
224
211
197
223
211
197
223
211
180
216
211
166
210
210
168
213
212
166
213
212
166
214
212
176
219
212
181
223
210
131
168
152
81
54
57
99
104
100
112
129
126
133
161
143
103
86
68
121
108
77
113
79
56
118
85
58
111
75
57
113
94
74
120
111
82
124
131
113
115
113
86
126
129
70
120
105
63
118
116
69
98
31
37
102
27
41
137
154
119
129
109
78
109
75
60
98
55
60
100
24
39
107
85
89
126
157
151
97
28
40
100
30
40
166
200
190
102
110
107
119
133
132
101
100
91
88
44
57
113
128
126
112
132
134
107
124
125
130
157
154
169
205
199
179
218
213
178
217
212
191
220
211
186
219
211
174
212
210
175
212
209
176
211
209
189
217
210
174
211
209
174
211
209
179
213
209
176
212
209
172
212
209
177
214
210
207
226
211
215
231
212
216
232
212
218
233
213
218
233
213
212
230
212
193
222
211
167
213
211
176
216
212
188
221
212
185
218
206
125
139
117
76
39
35
107
109
99
91
80
77
135
143
134
144
164
146
129
136
123
139
156
140
105
83
75
110
69
47
116
97
62
101
72
51
101
68
51
110
77
54
122
112
67
128
135
74
99
69
46
107
96
58
105
42
38
105
58
49
133
123
81
113
77
60
108
64
55
98
51
50
97
20
36
103
50
58
107
86
83
104
27
41
105
36
43
138
139
119
183
201
185
164
188
163
92
81
73
103
93
93
91
63
61
143
163
159
162
196
186
159
199
195
174
216
210
179
219
213
181
218
212
203
226
212
204
225
211
200
223
210
203
225
212
201
223
210
213
230
212
203
224
211
193
219
210
208
226
211
212
229
212
203
226
212
202
224
211
214
230
212
216
231
212
215
231
212
214
231
212
212
229
211
210
229
211
206
227
211
192
221
211
200
224
212
209
229
213
207
229
212
168
200
188
142
172
166
151
181
175
175
207
197
192
215
200
206
229
210
207
229
207
164
184
161
104
88
74
100
63
42
97
58
43
102
88
61
86
57
42
95
59
45
112
96
58
120
121
69
98
80
53
96
83
64
95
39
35
103
55
49
114
75
59
103
56
52
104
65
54
97
44
49
102
21
39
105
53
57
107
87
80
105
33
46
105
31
44
114
94
89
141
146
127
117
112
108
91
63
65
80
24
30
77
20
21
98
75
81
135
166
164
183
223
215
180
222
215
182
219
213
197
224
212
209
229
213
208
228
212
206
226
212
207
226
211
209
228
212
210
228
212
205
223
210
214
231
212
214
230
211
212
229
211
215
231
212
214
230
211
212
229
211
212
228
211
213
229
212
210
227
210
210
228
211
205
226
210
202
224
210
204
226
212
212
231
213
206
228
212
198
225
213
207
230
214
187
214
203
196
228
216
185
226
217
169
212
204
129
138
120
104
101
84
98
87
85
105
131
125
85
36
34
89
34
29
105
115
115
132
178
177
101
135
131
85
70
50
82
63
44
84
70
49
99
103
79
116
84
59
124
107
76
138
137
83
121
96
69
114
80
62
104
68
59
99
21
37
105
51
52
103
63
66
106
39
46
103
32
42
112
75
62
105
82
74
118
106
105
140
170
160
119
140
129
73
13
20
72
16
17
114
116
122
179
220
213
182
222
214
182
221
214
185
219
213
201
225
213
203
226
212
201
224
212
192
219
211
195
221
211
199
223
212
201
225
212
198
221
211
209
226
211
212
229
212
212
228
211
211
227
211
213
229
212
212
229
211
212
229
212
209
227
211
201
223
210
195
219
209
194
218
209
196
221
210
204
226
212
200
226
213
184
216
211
200
226
214
218
237
216
219
238
219
214
237
219
159
204
184
118
160
149
71
45
36
92
79
78
104
93
86
98
41
36
92
28
29
124
133
128
183
215
205
179
212
199
137
158
147
113
133
123
87
102
97
74
58
39
140
137
84
132
122
79
136
132
80
125
101
73
121
90
67
122
91
69
116
84
63
109
73
62
116
96
88
104
54
52
103
38
46
101
55
54
99
53
56
103
65
63
155
166
145
166
185
161
135
155
149
96
97
100
138
158
161
188
226
217
186
225
217
185
224
217
185
221
214
192
222
214
204
226
214
205
225
212
202
225
214
192
220
213
186
217
212
188
218
212
192
220
213
190
218
211
204
225
213
208
228
213
204
225
211
202
224
212
205
226
212
204
226
213
200
223
212
195
219
210
193
219
210
187
215
210
181
211
209
178
210
208
185
219
212
180
220
214
185
226
218
171
207
186
177
206
192
163
189
160
90
84
64
87
71
67
73
43
32
71
32
27
81
48
38
102
37
37
94
31
31
95
64
56
149
170
144
189
210
178
204
233
217
178
212
200
162
202
190
113
141
131
133
123
80
125
111
75
111
69
58
124
93
78
132
127
107
134
128
95
120
72
60
112
71
62
115
95
83
96
50
48
107
64
55
85
37
38
102
64
65
94
65
53
130
115
98
141
143
117
178
193
181
198
225
211
186
222
201
169
192
169
193
231
218
190
230
218
189
226
217
190
226
218
192
224
216
196
223
214
207
230
212
213
233
216
208
229
215
203
226
215
197
225
216
187
220
215
191
221
215
186
220
215
184
220
215
183
220
214
184
219
214
186
221
216
187
224
218
185
221
215
183
221
215
183
222
216
182
222
216
191
224
215
200
228
216
186
226
217
200
234
219
152
182
153
97
94
73
71
31
22
68
28
22
75
39
33
76
46
41
75
46
51
89
77
68
105
36
38
94
33
30
83
38
33
80
51
37
84
64
52
142
166
145
161
199
186
178
215
206
177
214
200
123
100
69
132
128
80
118
94
66
110
62
56
120
81
63
115
68
58
114
27
42
114
46
55
97
51
51
91
39
41
95
52
47
88
39
39
87
33
36
88
31
34
91
34
39
108
67
53
139
139
123
182
197
170
154
158
130
118
99
74
177
191
170
153
175
142
170
191
168
169
196
169
181
209
193
173
200
170
147
149
132
168
185
151
185
207
188
175
205
179
173
196
174
177
200
179
183
215
194
174
194
166
178
209
186
187
222
206
182
218
202
182
220
200
179
208
190
186
227
217
185
227
219
196
230
217
210
230
206
216
236
217
219
238
217
217
236
214
171
185
145
93
66
50
68
25
17
75
41
38
81
61
54
85
67
59
96
92
77
93
96
85
106
121
111
92
29
31
90
31
31
89
68
64
87
94
87
78
76
71
79
66
57
152
176
172
183
222
214
171
221
214
128
119
75
129
124
78
115
87
65
108
67
54
109
69
57
111
76
62
109
28
41
104
36
43
89
41
42
87
35
37
85
36
38
87
46
39
84
34
35
92
42
40
89
36
39
99
48
39
112
65
56
132
107
81
106
56
47
83
31
27
101
49
56
112
67
55
114
70
67
114
68
61
124
93
73
135
106
84
117
75
60
117
70
59
138
116
103
127
115
88
110
76
62
130
96
80
126
90
72
132
92
80
142
124
99
147
119
101
153
163
128
133
125
85
116
59
37
154
161
139
181
203
171
151
152
114
148
137
103
164
168
134
168
161
126
161
169
128
80
54
29
80
40
36
67
27
19
68
30
25
78
56
48
73
63
50
90
100
101
82
78
78
75
51
41
85
24
28
91
33
31
103
95
88
100
110
98
150
164
149
188
207
178
215
235
214
211
234
217
194
231
217
124
101
68
133
129
81
111
87
65
113
84
61
103
54
51
104
58
50
107
30
42
103
33
41
91
41
42
88
36
36
88
36
37
92
44
40
87
37
38
85
34
35
85
28
32
103
53
42
111
61
48
131
95
70
106
61
46
80
26
24
104
50
52
114
69
51
113
53
48
117
61
46
113
56
42
128
85
67
118
66
48
134
61
48
143
60
54
117
72
60
100
54
47
129
92
68
104
46
35
141
97
70
137
95
67
123
65
58
128
76
53
118
59
41
99
38
27
112
62
46
138
103
65
113
62
42
129
90
58
109
67
51
108
58
40
91
41
31
78
25
18
77
23
18
75
32
20
65
27
21
63
32
26
90
64
46
126
151
134
107
121
113
93
91
76
89
25
28
95
33
33
131
138
128
127
138
112
174
204
169
123
122
83
160
172
139
184
207
178
181
206
173
124
112
72
124
104
67
103
62
53
107
73
51
96
50
46
95
47
42
103
26
39
102
31
40
99
57
51
98
51
44
92
47
42
86
42
37
86
38
37
83
30
32
83
25
30
85
31
29
105
54
42
128
88
57
117
73
53
93
39
29
105
52
41
111
49
37
128
72
52
108
44
35
96
29
26
117
61
45
113
62
43
145
46
42
144
44
42
117
72
56
96
48
37
127
84
60
88
30
21
121
65
46
121
66
47
112
54
41
130
86
52
122
70
46
111
60
38
103
52
32
102
57
29
97
36
26
136
118
67
137
131
74
94
59
32
101
56
33
96
56
29
114
87
43
92
62
31
74
36
26
81
53
33
99
76
50
99
80
53
111
105
64
98
94
57
91
35
32
96
38
36
112
100
63
114
117
77
113
113
86
106
96
76
104
82
60
118
119
90
106
101
68
104
79
56
96
58
48
99
62
54
90
47
40
88
42
41
94
47
42
107
30
41
105
32
41
107
71
57
103
55
48
89
44
41
83
38
36
80
36
37
85
36
35
81
26
29
81
27
28
82
29
31
81
21
23
106
51
40
93
35
30
105
48
37
114
53
41
134
78
56
111
53
38
87
25
23
102
40
29
103
53
34
116
24
28
124
36
36
125
83
59
91
44
33
125
76
54
80
29
18
83
24
21
115
66
40
85
33
24
129
86
54
125
80
47
108
61
34
62
17
9
70
30
18
73
19
12
86
35
23
93
50
32
87
48
26
85
36
27
87
45
27
104
67
37
83
44
29
80
37
26
76
43
28
79
42
30
88
55
34
128
132
63
125
120
65
108
78
48
112
103
56
119
121
65
110
108
68
107
92
59
112
103
70
100
89
58
110
102
75
114
109
65
92
53
45
103
69
51
94
54
44
93
49
45
98
65
53
99
63
49
104
27
37
106
36
42
103
62
51
91
43
42
88
39
39
81
36
35
80
38
36
79
32
33
81
30
32
77
27
27
75
25
28
71
18
20
72
19
19
97
44
37
117
66
47
95
32
25
119
62
45
99
41
32
83
27
21
85
26
20
75
21
15
93
19
23
106
48
36
113
63
52
78
29
24
119
70
54
71
22
15
77
20
17
110
57
31
91
39
26
120
78
51
128
83
47
100
45
31
58
17
10
59
21
12
65
15
10
70
23
15
72
26
17
70
23
15
68
26
19
70
28
19
81
41
28
73
30
22
73
34
22
67
31
21
67
34
24
78
44
31
110
92
48
111
85
50
123
115
59
123
128
65
120
110
62
114
105
64
105
86
55
93
65
44
90
71
44
87
72
49
84
62
41
96
28
38
103
37
42
127
117
74
144
146
87
151
156
99
110
95
60
108
38
42
108
43
44
104
63
51
91
41
42
87
38
38
82
36
35
86
41
39
82
39
35
77
28
32
75
30
29
80
31
32
73
26
28
68
15
17
86
30
30
105
49
37
70
18
17
115
61
43
86
30
24
72
16
13
68
13
11
80
40
28
105
67
56
117
85
61
118
74
41
92
44
27
136
122
87
75
27
17
95
54
44
112
74
50
86
33
20
122
76
48
119
72
42
89
36
27
68
20
12
68
21
13
73
22
16
78
34
18
73
27
18
74
32
21
69
32
21
72
35
26
75
40
27
75
37
26
80
54
36
75
47
33
80
56
37
80
50
33
95
68
36
122
112
60
130
129
64
125
125
70
109
88
55
101
80
53
90
65
48
85
59
43
84
69
41
68
46
33
70
50
32
102
27
40
112
30
43
165
180
104
147
157
88
156
167
100
146
158
91
102
32
38
105
36
43
94
47
44
87
42
40
89
38
39
86
38
38
78
35
33
79
31
33
79
34
33
76
30
30
82
38
35
88
40
37
73
19
20
127
104
69
126
96
60
91
50
35
106
72
45
114
84
51
89
58
35
94
61
34
143
126
67
139
119
72
134
109
63
111
76
43
95
51
35
131
102
63
88
44
23
95
67
59
113
86
62
74
20
13
114
66
38
99
45
30
90
43
29
102
62
41
84
40
27
95
48
30
97
50
30
104
81
52
88
73
41
85
69
40
80
62
42
83
54
33
91
67
48
106
91
58
94
64
50
87
60
43
77
44
29
136
144
65
126
120
65
108
87
51
106
87
54
87
58
38
80
48
37
71
46
33
83
65
47
72
58
34
65
50
32
69
51
34
102
30
43
108
33
45
121
111
72
98
62
51
123
109
68
149
161
100
98
38
40
104
47
45
92
60
48
85
45
41
84
41
39
83
36
35
80
40
35
78
35
35
75
34
31
73
36
31
73
32
30
68
29
25
94
45
31
155
143
83
166
160
82
135
116
67
163
149
78
146
128
66
149
126
66
171
156
84
175
163
80
174
166
86
171
160
79
144
121
64
111
76
42
159
143
76
119
83
45
139
116
58
163
151
83
120
88
46
118
82
42
133
104
65
139
120
69
142
123
69
100
50
40
121
90
66
104
69
42
164
160
86
167
168
89
169
174
88
163
172
84
119
114
58
115
106
60
129
122
81
143
156
113
87
72
38
79
50
31
100
75
40
100
74
44
112
95
54
98
78
50
82
59
38
78
49
37
68
44
29
71
49
36
73
55
35
63
47
27
72
55
36
105
31
42
111
33
46
90
48
44
94
54
47
93
54
45
105
72
56
103
36
40
111
58
54
112
96
69
84
39
38
87
42
38
86
39
39
83
38
35
79
38
36
77
39
31
73
34
31
68
26
24
64
23
23
78
34
22
160
148
84
172
162
88
168
154
83
166
151
74
166
149
74
164
144
70
161
137
70
156
132
63
164
145
74
175
161
77
167
147
77
152
127
62
165
148
71
165
151
71
167
154
71
164
148
79
160
135
73
166
147
74
170
158
90
169
148
82
170
152
90
152
118
80
139
114
70
147
135
102
176
173
126
184
186
137
192
195
147
174
173
116
170
151
107
162
161
121
169
183
146
136
150
118
78
49
29
74
42
27
71
41
23
81
51
32
93
49
34
102
63
45
109
92
59
105
105
63
72
47
30
68
49
31
75
58
34
67
55
30
76
62
39
106
27
36
105
23
38
94
45
40
94
49
44
95
52
44
99
57
50
105
35
40
103
40
43
95
46
43
96
28
36
92
39
38
94
46
41
89
42
38
86
39
37
83
38
32
76
35
33
70
29
25
66
25
23
84
43
28
123
91
50
183
146
86
189
151
92
186
147
81
190
141
87
188
139
81
195
144
91
196
151
93
196
148
92
196
140
91
193
140
84
168
119
66
157
111
67
175
119
87
168
118
73
186
124
92
190
119
91
186
128
97
158
124
100
191
142
100
186
140
103
185
135
101
161
113
85
145
108
82
151
113
76
158
119
80
155
119
75
153
129
83
156
129
80
86
47
33
72
33
22
66
32
21
67
34
22
67
35
27
60
33
22
69
40
26
92
40
32
102
57
41
101
79
48
81
47
32
77
48
32
85
70
46
88
68
46
97
81
47
87
72
45
104
23
33
105
24
38
99
53
46
92
48
45
120
105
68
116
96
65
110
77
54
107
46
46
110
67
50
99
24
35
108
51
46
97
52
47
94
45
39
87
40
38
85
38
33
79
36
32
71
33
27
72
24
23
114
92
47
172
167
83
178
171
81
181
171
81
180
169
75
181
165
75
179
162
71
180
160
69
181
160
71
178
160
67
178
155
67
180
158
70
181
161
72
181
161
76
186
158
88
185
158
84
182
156
84
182
155
81
178
151
80
147
116
71
173
145
72
179
158
78
177
156
74
160
138
69
161
138
73
174
160
79
175
163
83
175
167
85
172
166
92
171
165
86
114
85
45
81
45
27
69
32
22
66
31
23
68
37
26
68
40
25
72
40
28
92
36
31
97
57
40
97
68
40
85
53
36
74
44
31
83
56
41
95
75
47
97
77
54
137
128
98
98
25
35
101
25
38
116
96
64
108
89
61
97
64
51
121
102
67
112
75
52
106
39
46
100
38
40
99
19
35
103
45
41
104
63
50
104
66
48
86
44
40
78
37
32
72
32
28
66
28
26
63
21
21
95
74
38
128
116
55
143
121
59
178
164
76
183
166
79
180
162
76
181
165
73
179
159
68
178
157
68
179
159
67
180
160
72
181
167
68
180
165
69
179
157
67
181
161
70
181
161
66
179
156
71
180
159
65
178
160
71
182
159
67
183
161
71
182
164
69
181
163
68
180
163
66
180
166
71
176
164
66
173
157
63
172
158
60
170
158
68
130
112
51
98
69
40
75
40
25
67
32
22
74
43
28
77
47
31
80
52
35
71
41
26
89
35
30
94
43
36
82
37
30
72
49
32
88
77
63
80
62
49
75
56
40
77
59
46
89
70
51
98
22
33
97
22
37
92
60
47
90
56
45
87
56
44
99
67
51
108
61
48
104
37
42
99
37
40
99
26
37
98
40
39
97
58
47
90
44
40
84
45
38
77
39
33
66
30
27
63
23
22
63
26
22
64
33
22
56
27
18
72
32
21
113
73
38
128
94
50
131
103
52
143
121
58
144
121
65
139
122
67
132
109
63
134
110
80
131
114
75
129
108
70
143
136
96
132
100
54
138
105
64
138
102
63
127
91
41
130
102
56
127
94
48
131
93
42
128
94
37
128
94
41
122
88
38
127
99
51
137
133
99
136
138
114
150
159
124
143
155
122
118
104
59
81
48
26
65
35
18
62
34
21
75
51
33
87
63
40
74
44
29
70
43
28
86
34
30
84
35
30
78
37
31
74
70
68
78
92
89
74
72
63
67
52
38
87
87
79
94
76
66
100
29
37
96
24
37
90
55
44
77
43
36
93
63
53
91
59
49
107
43
43
112
36
44
106
41
45
107
27
38
98
34
38
92
42
39
92
51
43
83
37
35
76
32
31
73
30
27
69
34
33
75
44
42
78
49
45
71
37
31
116
114
101
103
72
54
106
68
48
99
56
33
97
53
38
128
123
109
134
140
123
132
130
112
128
123
111
124
128
102
119
107
99
142
158
144
93
49
32
117
110
104
131
143
130
114
101
95
123
125
117
95
73
59
100
64
51
109
88
72
104
80
63
107
94
88
120
130
127
149
180
178
166
200
194
165
204
196
151
198
196
88
94
82
69
32
18
94
97
93
89
104
93
68
39
23
73
46
29
77
58
48
82
60
48
89
34
29
89
38
30
92
67
67
96
101
91
115
153
147
114
141
134
79
77
71
90
101
98
84
71
60
101
24
35
94
18
33
96
86
81
107
116
114
111
125
118
97
91
77
107
46
45
114
34
43
112
38
46
108
29
40
103
40
40
101
57
45
92
42
38
80
35
32
73
32
29
74
34
30
80
42
40
89
63
54
125
130
115
130
146
133
159
192
181
131
144
130
124
126
116
107
88
82
121
111
101
160
185
171
156
184
174
153
176
169
152
173
164
135
155
137
139
144
142
144
159
145
96
67
66
142
152
146
152
178
170
141
159
156
155
179
170
113
112
104
113
97
95
128
137
128
122
127
121
130
149
146
142
179
180
162
191
189
177
206
196
174
209
198
159
204
200
123
162
155
73
59
56
67
44
43
90
89
75
71
36
24
67
35
19
68
39
23
80
48
32
97
37
35
94
38
35
88
53
49
102
110
103
145
183
181
142
178
165
127
160
151
104
124
113
68
72
59
97
25
35
98
28
38
154
189
188
166
205
199
155
193
183
128
162
154
111
58
48
113
30
43
111
39
47
107
24
37
97
34
38
105
95
91
99
77
65
79
34
31
75
35
31
71
30
26
65
19
21
68
29
26
88
69
62
149
171
164
173
204
192
155
180
166
145
162
154
134
145
133
150
154
144
173
198
181
164
189
182
158
182
174
159
186
179
147
177
165
160
174
169
157
175
160
126
122
119
163
175
167
164
192
186
159
183
179
168
192
182
132
153
147
126
137
136
143
166
160
171
194
182
152
177
167
149
183
184
168
194
190
180
206
194
177
209
197
164
203
196
140
184
177
133
171
167
124
158
152
67
36
25
83
77
68
70
44
36
88
89
86
88
93
84
99
37
35
96
39
37
104
89
94
123
144
140
162
196
186
142
174
157
91
88
77
67
51
44
59
43
32
97
23
34
101
39
44
163
197
197
174
208
201
175
209
202
160
202
197
108
69
54
110
33
45
108
38
47
105
26
37
102
57
61
101
75
78
97
69
61
83
36
32
84
52
59
73
31
30
64
20
21
63
24
21
81
55
50
157
177
169
178
208
198
166
190
181
160
181
174
153
175
163
167
181
172
180
204
188
169
193
187
159
184
181
161
191
184
155
190
180
166
186
179
163
181
171
142
154
151
170
184
178
168
195
188
167
189
186
170
194
185
140
165
164
138
164
162
166
190
183
200
219
195
169
194
182
157
191
191
172
198
192
183
208
194
182
211
199
167
206
197
136
172
168
97
106
106
121
139
140
142
183
182
116
145
147
127
163
166
131
182
188
107
138
135
97
36
30
94
41
35
101
90
86
117
143
133
93
86
73
95
97
86
82
73
66
84
90
85
63
43
35
93
26
38
97
32
40
164
196
198
174
208
203
173
208
202
172
210
207
107
75
59
113
43
59
111
62
63
106
26
39
119
114
107
129
152
134
120
104
70
114
84
54
94
63
61
78
33
36
69
46
57
65
17
21
75
38
45
152
170
169
181
209
201
173
195
189
163
185
181
156
180
172
171
190
183
182
206
191
172
195
188
161
186
182
160
192
186
156
193
184
169
190
182
169
190
178
153
174
170
173
189
183
171
197
189
167
189
185
172
193
187
144
173
174
143
172
169
199
215
191
175
199
177
176
198
182
156
192
192
174
197
191
185
209
194
183
211
196
168
206
195
150
192
190
146
188
188
164
200
196
169
206
200
157
198
196
157
196
195
154
201
203
135
182
178
97
34
30
92
35
29
85
43
37
87
89
87
80
62
58
77
56
47
73
46
38
69
53
42
67
48
37
91
23
34
94
26
35
165
197
199
174
208
203
175
207
203
172
210
207
109
80
66
113
39
60
110
61
63
105
31
41
121
94
59
127
114
63
126
107
66
113
80
52
83
32
30
93
63
64
132
169
176
125
157
162
139
157
153
173
198
196
181
210
204
171
198
193
163
188
185
157
182
178
171
190
184
182
207
192
171
194
187
161
185
181
158
190
185
157
195
186
170
191
182
170
191
181
153
178
173
172
191
183
171
197
189
168
192
188
172
195
188
146
179
180
168
187
179
201
216
188
143
173
158
175
192
174
157
187
187
172
196
190
184
207
192
180
209
194
168
205
193
149
193
191
146
188
187
168
199
194
172
205
196
159
197
194
156
196
194
158
202
202
135
178
173
93
35
30
92
35
32
109
112
117
132
182
176
101
115
109
90
101
93
91
109
113
74
59
49
68
42
31
89
20
32
95
24
33
161
196
197
172
208
203
175
207
205
170
209
207
102
80
61
108
29
42
105
30
40
103
25
37
113
77
56
96
64
60
94
57
60
94
45
50
84
49
53
84
35
33
123
140
140
137
161
145
124
113
102
165
185
174
171
195
179
163
183
165
142
153
145
158
185
186
172
190
184
181
205
192
169
193
186
159
183
181
158
191
186
156
192
184
170
190
181
168
189
178
155
177
173
174
191
183
170
196
187
168
191
187
172
195
188
148
181
182
202
214
193
191
213
189
137
158
152
181
198
178
142
174
171
170
195
190
184
205
191
178
206
192
169
203
191
150
192
189
148
188
185
166
197
191
170
203
195
159
198
193
155
197
195
161
202
202
135
174
168
91
38
31
91
38
31
107
111
113
103
133
123
100
122
114
83
90
91
115
155
154
72
62
55
67
33
25
85
16
26
90
21
29
161
198
199
171
207
203
175
207
203
168
208
206
100
68
52
100
23
34
98
22
33
99
20
30
141
160
165
131
176
183
112
131
137
109
92
105
112
130
140
98
48
39
115
81
55
94
53
39
92
37
35
126
92
71
140
125
97
130
113
106
145
162
165
160
190
191
173
194
188
180
205
193
168
194
187
159
185
183
158
189
185
154
190
183
171
190
180
169
188
179
154
177
169
173
186
180
169
193
185
168
190
185
170
194
186
162
187
182
213
227
199
145
170
159
162
174
163
193
212
192
130
159
157
169
195
190
182
203
190
178
205
191
166
202
191
150
190
188
148
185
182
166
195
191
169
203
196
134
159
154
144
181
172
148
187
177
128
169
160
84
34
27
85
30
27
109
114
120
118
160
155
134
176
177
132
183
188
123
170
171
77
69
68
75
42
38
88
16
27
92
21
28
159
197
199
170
207
203
172
205
201
169
208
205
102
68
54
102
23
34
98
16
29
94
17
28
150
179
184
135
179
184
114
120
125
113
106
115
122
153
156
93
54
50
81
26
26
79
20
23
78
19
21
94
38
33
111
92
95
158
185
186
163
196
197
149
173
160
173
191
179
178
204
194
166
193
186
157
184
183
156
189
185
153
189
183
168
189
181
171
189
180
155
180
173
175
187
182
167
191
184
166
189
185
167
193
186
190
206
189
180
196
173
157
166
160
205
216
194
206
224
199
144
167
159
169
192
186
180
202
190
177
205
191
164
200
190
152
190
187
150
186
184
164
194
190
169
202
194
156
192
189
141
176
179
137
171
170
112
135
132
86
32
26
83
31
27
121
131
136
140
185
184
153
201
197
142
194
191
125
170
168
109
147
155
107
113
120
96
15
26
96
22
29
160
197
198
170
207
202
174
206
202
169
208
206
106
70
55
105
26
37
102
20
33
98
18
32
153
184
188
141
194
202
114
119
123
119
122
133
114
123
126
100
87
84
79
30
29
77
25
27
78
23
25
84
27
28
145
155
139
172
211
209
159
186
174
128
102
74
144
134
112
181
206
198
164
193
188
158
185
183
158
189
183
155
188
182
170
189
180
171
190
179
156
181
175
170
187
183
165
189
183
163
188
185
166
190
185
181
193
170
198
208
181
208
220
192
213
229
204
210
227
199
179
197
175
174
190
179
178
200
189
175
204
191
164
201
192
151
193
188
151
185
184
164
194
187
166
200
191
156
193
189
152
192
191
155
198
197
130
165
162
86
30
22
86
28
24
121
132
135
153
205
202
158
205
200
142
192
189
134
178
176
133
181
188
114
155
160
99
13
26
97
20
31
159
197
199
170
206
202
171
206
203
166
207
207
110
74
60
107
27
38
105
25
37
102
17
33
150
186
190
136
191
199
111
116
119
118
98
96
122
145
137
92
37
35
81
30
27
82
32
31
83
31
29
85
27
31
103
76
74
145
164
145
115
89
61
112
65
40
122
79
47
138
133
107
156
181
177
153
183
184
154
186
182
153
186
181
169
185
178
170
187
177
153
177
175
164
182
180
163
186
183
160
186
186
161
188
186
168
184
158
179
189
156
183
157
129
176
191
161
174
180
146
171
175
147
155
163
143
176
200
192
174
204
190
162
200
191
151
193
186
149
186
184
162
194
187
168
199
190
156
191
187
153
192
190
153
198
197
128
162
160
83
30
23
85
30
25
114
129
133
150
204
201
154
203
198
147
198
196
135
185
185
130
188
195
107
146
148
104
17
29
98
24
36
157
199
201
167
204
201
165
203
202
158
204
206
106
79
64
106
27
40
105
30
41
99
21
35
144
182
188
133
193
204
115
139
145
103
24
30
102
52
42
84
31
31
76
27
22
80
29
30
84
28
30
85
33
39
80
26
28
82
23
22
99
65
56
102
48
42
103
52
34
131
117
107
159
183
174
161
188
188
158
188
184
156
187
182
170
186
179
170
186
177
159
178
176
164
182
180
162
184
181
162
184
184
158
183
186
106
98
96
103
72
70
105
61
42
103
51
40
97
44
31
96
48
31
139
141
135
174
199
191
171
201
188
159
197
190
149
192
185
148
187
184
159
192
185
164
197
190
157
191
187
152
191
190
153
197
196
122
158
156
84
30
23
87
32
26
115
132
135
147
204
202
149
200
197
144
197
196
138
191
193
129
187
194
122
179
189
102
14
28
101
28
41
156
198
201
163
202
202
162
202
201
158
204
207
105
84
72
106
27
41
106
29
41
102
22
35
146
188
196
136
193
204
117
142
148
113
79
80
104
85
81
85
38
34
76
38
48
80
32
37
81
27
27
77
23
25
75
18
19
75
16
19
88
40
25
93
42
38
95
39
38
121
110
113
141
138
138
166
191
189
160
191
186
157
187
182
173
188
180
175
189
178
163
181
178
166
181
179
164
185
182
165
184
183
162
184
187
151
176
172
151
180
166
140
158
143
148
179
168
135
158
146
111
126
117
124
132
129
171
197
190
169
200
189
157
196
191
145
189
186
146
186
185
157
192
185
160
195
189
154
191
187
149
191
190
148
196
195
120
155
152
86
32
25
84
33
26
114
128
131
144
202
202
149
201
198
142
196
195
139
193
195
128
189
194
121
186
196
106
15
30
100
28
44
158
199
201
165
205
203
163
205
204
158
206
208
104
87
76
104
24
38
103
24
36
100
21
35
146
191
199
136
194
205
116
138
145
120
119
132
130
190
198
114
131
126
137
179
178
125
152
152
77
27
27
81
29
29
77
22
22
70
15
16
81
41
38
93
45
26
112
93
84
159
176
168
161
188
183
156
185
186
154
187
185
159
187
183
172
187
180
174
187
177
163
178
176
166
182
180
164
182
181
162
183
183
159
184
186
136
155
156
127
126
118
127
129
117
145
164
148
144
167
145
100
98
100
150
172
167
171
198
188
166
199
189
155
194
188
149
191
186
146
186
185
152
190
184
154
192
188
152
191
187
151
191
191
150
197
197
117
151
150
85
27
23
82
35
27
113
129
134
144
203
203
141
199
197
137
193
195
133
190
194
127
188
193
115
185
195
101
21
33
98
28
43
153
196
201
165
206
204
157
204
203
154
205
207
105
90
83
104
27
39
103
24
35
101
26
37
143
192
201
137
196
207
117
135
132
120
103
100
123
140
107
110
104
87
100
62
57
112
116
106
83
36
30
79
27
26
71
17
17
76
16
16
77
22
21
75
25
23
97
51
40
82
27
23
112
93
94
159
189
188
157
188
186
159
189
184
173
189
180
174
189
180
161
178
178
162
181
179
164
183
184
162
183
181
161
184
184
144
169
171
121
121
124
112
101
102
118
115
111
135
152
132
108
114
120
162
189
182
172
202
191
166
200
190
155
194
188
146
188
186
142
186
186
145
189
185
144
192
190
145
189
188
145
190
191
143
195
197
115
149
147
86
29
26
85
34
30
106
125
131
134
201
203
132
198
199
128
191
196
124
189
195
118
184
193
114
184
195
100
26
35
96
29
41
153
196
201
160
205
205
152
203
204
153
206
208
104
94
85
101
26
39
99
24
34
100
26
39
135
189
193
134
183
173
115
123
114
115
67
46
116
97
53
95
49
40
95
64
66
89
54
49
80
24
24
78
20
21
74
18
21
72
16
18
71
18
18
74
28
24
86
39
41
111
81
79
153
173
175
160
190
189
156
189
187
158
190
185
173
192
184
173
190
182
162
182
181
160
182
182
163
185
187
160
183
183
158
183
185
152
180
181
125
141
146
110
110
113
111
106
108
124
137
128
127
146
149
165
195
188
170
202
193
165
199
190
154
192
188
149
188
185
142
187
186
140
189
187
144
192
191
144
189
189
144
190
191
141
197
198
119
150
146
90
34
29
89
40
33
100
122
130
125
199
203
125
195
199
123
189
195
120
189
195
116
186
193
109
185
195
98
22
33
94
27
39
151
196
202
152
201
204
150
203
206
150
206
211
106
100
91
98
25
34
97
20
32
97
34
48
132
178
171
115
112
87
112
86
74
106
42
40
103
80
64
108
114
112
113
116
103
101
85
67
79
24
26
75
24
21
72
19
21
71
14
18
72
22
20
77
27
24
101
69
70
121
119
117
154
173
177
161
189
189
157
188
189
156
189
186
173
192
188
171
192
186
164
185
186
159
184
186
163
184
186
161
186
188
158
185
188
152
181
183
135
158
164
108
117
125
107
104
109
131
142
138
147
170
169
170
199
191
171
206
198
165
200
192
158
192
189
150
186
184
146
188
187
146
189
189
148
193
190
149
191
190
141
190
192
139
195
199
113
147
147
93
37
30
93
43
35
102
122
129
121
198
202
121
194
199
119
190
196
115
186
194
113
185
194
113
184
195
99
23
33
98
24
41
150
198
206
148
203
207
145
203
208
146
204
204
102
93
79
93
23
32
97
24
34
102
43
62
135
197
207
127
185
193
108
109
105
108
66
69
116
152
165
128
178
189
124
146
136
114
88
52
82
31
29
84
54
47
83
39
34
74
23
20
74
25
19
72
23
17
93
57
60
134
139
145
166
192
194
161
190
191
158
189
192
159
191
190
171
194
192
170
193
191
167
191
187
161
188
193
161
185
192
165
190
186
160
187
192
157
185
188
152
180
183
118
140
150
107
104
113
138
156
152
155
184
182
169
204
198
167
205
190
162
199
195
154
191
190
149
186
187
146
186
187
147
190
190
143
190
190
142
188
190
141
190
192
136
195
199
112
144
143
92
35
30
91
41
32
106
118
125
120
198
203
117
194
200
113
188
196
112
185
195
111
184
195
121
184
197
97
18
30
94
24
38
147
198
203
152
204
208
144
202
208
132
172
151
96
48
42
96
25
35
97
23
37
103
55
74
135
200
208
131
193
203
109
111
102
106
84
98
130
189
203
137
191
202
142
181
177
121
104
67
92
48
42
115
103
98
100
80
79
109
67
40
110
75
39
114
91
48
138
148
142
165
189
192
163
190
193
162
189
191
160
189
193
158
193
194
164
194
198
166
194
191
124
110
74
145
148
127
151
165
143
129
103
72
155
176
181
158
188
195
155
185
193
139
170
173
109
121
135
142
167
166
169
198
196
168
204
191
131
150
117
155
185
170
153
188
190
153
187
188
145
185
185
144
188
190
139
190
191
139
189
192
135
188
192
128
194
200
111
142
140
95
36
32
94
41
31
98
101
106
120
198
205
115
193
201
113
189
200
110
185
197
108
184
198
122
185
199
92
13
27
93
20
34
128
152
128
138
176
161
145
191
176
113
108
71
96
47
42
96
28
37
95
21
34
100
41
47
139
188
178
136
196
199
114
135
135
113
99
103
136
190
184
142
192
192
152
187
179
130
137
126
111
117
113
147
166
161
138
158
150
106
66
54
95
38
33
108
82
62
131
135
134
167
191
191
165
191
193
159
187
195
160
190
197
159
192
198
159
181
179
155
175
165
131
101
52
112
61
29
134
100
45
119
94
81
152
171
169
150
170
151
146
163
148
134
136
119
124
144
149
143
150
137
173
206
203
165
197
181
133
143
107
127
138
132
154
184
184
149
185
189
146
184
187
140
185
190
142
190
192
140
190
196
132
187
194
126
191
200
111
137
137
98
38
31
96
43
33
100
82
87
119
197
205
114
192
202
112
189
200
110
186
201
109
186
203
126
180
190
